<svg width="24" height="24" viewBox="0 0 24 24" fill="none" xmlns="http://www.w3.org/2000/svg">
<path d="M19.5 8.14701C19.5018 7.46609 19.3724 6.7916 19.1193 6.16283C18.8663 5.53406 18.4947 4.96357 18.0261 4.4846C17.5575 4.00562 17.0014 3.62773 16.39 3.37293C15.7787 3.11812 15.1244 2.9915 14.4652 3.00044H9.4826C8.16114 3.00044 6.89379 3.54267 5.95937 4.50784C5.02495 5.47301 4.5 6.78206 4.5 8.14701C4.5091 8.60148 4.63459 9.04535 4.8637 9.43346C5.65385 10.3125 5.84379 10.1401 6.23077 10.3565V18.1303C6.23077 18.5083 6.30306 18.8825 6.44349 19.2316C6.58393 19.5806 6.78974 19.8976 7.04911 20.1642C7.30848 20.4309 7.61629 20.642 7.95487 20.7854C8.29345 20.9288 8.22971 21.0017 8.59565 21H15.4174C16.1542 21 16.4345 20.6976 16.9555 20.1595C17.4765 19.6213 17.7692 18.8914 17.7692 18.1303V10.3565C18.158 10.1423 18.3462 10.2095 19.1398 9.43569C19.3692 9.0471 19.4936 8.6021 19.5 8.14701Z" stroke="#555555" stroke-width="1.5" stroke-miterlimit="10"/>
</svg>
