<svg width="24" height="24" viewBox="0 0 24 24" fill="none" xmlns="http://www.w3.org/2000/svg">
<path fill-rule="evenodd" clip-rule="evenodd" d="M21.75 8C21.75 7.58579 21.4142 7.25 21 7.25H3C2.58579 7.25 2.25 7.58579 2.25 8V16C2.25 16.4142 2.58579 16.75 3 16.75H21C21.4142 16.75 21.75 16.4142 21.75 16V8ZM3.75 8.75H20.25V15.25H3.75V8.75ZM16.0303 10.9697C15.7374 10.6768 15.2626 10.6768 14.9697 10.9697C14.6768 11.2626 14.6768 11.7374 14.9697 12.0303L16.4697 13.5303C16.7626 13.8232 17.2374 13.8232 17.5303 13.5303L19.0303 12.0303C19.3232 11.7374 19.3232 11.2626 19.0303 10.9697C18.7374 10.6768 18.2626 10.6768 17.9697 10.9697L17 11.9393L16.0303 10.9697Z" fill="#555555"/>
</svg>
