<svg width="24" height="24" viewBox="0 0 24 24" fill="none" xmlns="http://www.w3.org/2000/svg">
<path fill-rule="evenodd" clip-rule="evenodd" d="M12 3.25C12.4142 3.25 12.75 3.58579 12.75 4V4.2906C14.112 4.44062 15.2864 5.00132 16.1592 5.88677C17.1868 6.92932 17.75 8.37527 17.75 10V14.6893L19.5304 16.4697C19.7449 16.6842 19.809 17.0068 19.6929 17.287C19.5768 17.5673 19.3034 17.75 19 17.75H5.00002C4.69668 17.75 4.4232 17.5673 4.30711 17.287C4.19103 17.0068 4.25519 16.6842 4.46969 16.4697L6.25002 14.6893V10C6.25002 8.37527 6.81329 6.92932 7.84087 5.88677C8.7136 5.00132 9.88807 4.44062 11.25 4.2906V4C11.25 3.58579 11.5858 3.25 12 3.25ZM12 5.75C10.6811 5.75 9.62997 6.20844 8.90917 6.93973C8.18676 7.67268 7.75002 8.72673 7.75002 10V15C7.75002 15.1989 7.671 15.3897 7.53035 15.5303L6.81068 16.25H17.1894L16.4697 15.5303C16.329 15.3897 16.25 15.1989 16.25 15V10C16.25 8.72673 15.8133 7.67268 15.0909 6.93973C14.3701 6.20844 13.3189 5.75 12 5.75ZM9.25002 20C9.25002 19.5858 9.58581 19.25 10 19.25H14C14.4142 19.25 14.75 19.5858 14.75 20C14.75 20.4142 14.4142 20.75 14 20.75H10C9.58581 20.75 9.25002 20.4142 9.25002 20Z" fill="#555555"/>
</svg>
