<svg width="24" height="24" viewBox="0 0 24 24" fill="none" xmlns="http://www.w3.org/2000/svg">
<path fill-rule="evenodd" clip-rule="evenodd" d="M5.75 3C4.23122 3 3 4.23122 3 5.75V17.75C3 19.2688 4.23122 20.5 5.75 20.5H17.75C19.2688 20.5 20.5 19.2688 20.5 17.75V5.75C20.5 4.23122 19.2688 3 17.75 3H5.75ZM4.5 5.75C4.5 5.05964 5.05964 4.5 5.75 4.5H17.75C17.9506 4.5 18.1401 4.54725 18.3081 4.63121L4.63121 18.3081C4.54725 18.1401 4.5 17.9506 4.5 17.75V5.75ZM6.06066 19H17.75C18.4404 19 19 18.4404 19 17.75V6.06066L6.06066 19Z" fill="#555555"/>
</svg>
