<svg width="24" height="24" viewBox="0 0 24 24" fill="none" xmlns="http://www.w3.org/2000/svg">
<path d="M14 9.14064C14.0014 8.63523 13.9022 8.13459 13.7082 7.66789C13.5142 7.20119 13.2293 6.77776 12.87 6.42224C12.5108 6.06672 12.0844 5.78624 11.6157 5.59711C11.147 5.40799 10.6454 5.31401 10.14 5.32064H6.32C5.30687 5.32064 4.33524 5.7231 3.61885 6.43949C2.90246 7.15588 2.5 8.12751 2.5 9.14064C2.50698 9.47797 2.60319 9.80742 2.77884 10.0955C2.95449 10.3836 3.20332 10.62 3.5 10.7806V16.5506C3.5 16.8312 3.55542 17.109 3.66309 17.3681C3.77076 17.6271 3.92854 17.8624 4.12739 18.0603C4.32624 18.2582 4.56223 18.4149 4.82181 18.5214C5.08139 18.6278 5.35944 18.682 5.64 18.6806H10.87C11.4349 18.6806 11.9767 18.4562 12.3761 18.0568C12.7756 17.6573 13 17.1156 13 16.5506V10.7806C13.298 10.6216 13.548 10.3856 13.7239 10.0971C13.8997 9.80872 13.9951 9.47842 14 9.14064Z" stroke="#555555" stroke-width="1.5" stroke-miterlimit="10"/>
<path d="M12.8599 5.32031H16.6799C17.693 5.32031 18.6647 5.72278 19.381 6.43916C20.0974 7.15555 20.4999 8.12719 20.4999 9.14031C20.5 9.47311 20.4121 9.80003 20.2453 10.088C20.0785 10.376 19.8386 10.6148 19.5499 10.7803V16.5403C19.5499 16.8213 19.4945 17.0996 19.387 17.3593C19.2794 17.6189 19.1218 17.8548 18.9231 18.0535C18.7244 18.2522 18.4885 18.4099 18.2288 18.5174C17.9692 18.625 17.6909 18.6803 17.4099 18.6803H12.1399" stroke="#555555" stroke-width="1.5" stroke-miterlimit="10"/>
<path d="M6.27002 5.32031H16.77" stroke="#555555" stroke-width="1.5" stroke-miterlimit="10"/>
<path d="M7.22998 18.6797H15.82" stroke="#555555" stroke-width="1.5" stroke-miterlimit="10"/>
<circle cx="21" cy="19" r="1" fill="#555555"/>
</svg>
