<svg width="24" height="24" viewBox="0 0 24 24" fill="none" xmlns="http://www.w3.org/2000/svg">
<path fill-rule="evenodd" clip-rule="evenodd" d="M17.6 4.60039H16.1V3.70039C16.1 3.30039 15.8 2.90039 15.3 2.90039C14.8 2.90039 14.5 3.20039 14.5 3.70039V4.60039H9.3V3.70039C9.3 3.30039 9 2.90039 8.5 2.90039C8 2.90039 7.7 3.20039 7.7 3.70039V4.60039H5.9C4.6 4.60039 3.5 5.70039 3.5 7.00039V18.7004C3.5 20.0004 4.6 21.1004 5.9 21.1004H17.6C18.9 21.1004 20 20.0004 20 18.7004V7.00039C20 5.70039 18.9 4.60039 17.6 4.60039ZM18.7 18.7004C18.7 19.2004 18.3 19.6004 17.8 19.6004H5.9C5.4 19.6004 5 19.2004 5 18.7004V11.1004H18.7V18.7004ZM18.8 9.60039H5V7.00039C5 6.50039 5.4 6.10039 5.9 6.10039H7.7V7.00039C7.7 7.50039 8 7.80039 8.5 7.80039C9 7.80039 9.3 7.40039 9.3 7.00039V6.10039H14.5V7.00039C14.5 7.50039 14.8 7.80039 15.3 7.80039C15.8 7.80039 16.1 7.40039 16.1 7.00039V6.10039H17.9C18.4 6.10039 18.8 6.50039 18.8 7.00039V9.60039Z" fill="#555555"/>
</svg>
