<svg width="24" height="24" viewBox="0 0 24 24" fill="none" xmlns="http://www.w3.org/2000/svg">
<path fill-rule="evenodd" clip-rule="evenodd" d="M5.75 3C4.23122 3 3 4.23122 3 5.75V17.75C3 19.2688 4.23122 20.5 5.75 20.5H17.75C19.2688 20.5 20.5 19.2688 20.5 17.75V5.75C20.5 4.23122 19.2688 3 17.75 3H5.75ZM4.5 5.75C4.5 5.05964 5.05964 4.5 5.75 4.5H17.75C18.4404 4.5 19 5.05964 19 5.75V17.75C19 18.4404 18.4404 19 17.75 19H5.75C5.05964 19 4.5 18.4404 4.5 17.75V5.75ZM15.2803 10.2803C15.5732 9.98744 15.5732 9.51256 15.2803 9.21967C14.9874 8.92678 14.5126 8.92678 14.2197 9.21967L10.75 12.6893L9.28033 11.2197C8.98744 10.9268 8.51256 10.9268 8.21967 11.2197C7.92678 11.5126 7.92678 11.9874 8.21967 12.2803L10.2197 14.2803C10.5126 14.5732 10.9874 14.5732 11.2803 14.2803L15.2803 10.2803Z" fill="#555555"/>
</svg>
