<svg width="24" height="24" viewBox="0 0 24 24" fill="none" xmlns="http://www.w3.org/2000/svg">
<path fill-rule="evenodd" clip-rule="evenodd" d="M3.75 12C3.75 7.44365 7.44365 3.75 12 3.75C16.5563 3.75 20.25 7.44365 20.25 12C20.25 16.5563 16.5563 20.25 12 20.25C7.44365 20.25 3.75 16.5563 3.75 12ZM12 2.25C6.61522 2.25 2.25 6.61522 2.25 12C2.25 17.3848 6.61522 21.75 12 21.75C17.3848 21.75 21.75 17.3848 21.75 12C21.75 6.61522 17.3848 2.25 12 2.25ZM11.0188 14.0307C11.0189 14.034 11.0191 14.0373 11.0192 14.0406L11.0092 14.0307H11.0188ZM11.0188 14.0307H12.5992C12.5692 13.5007 12.7392 12.9807 13.0692 12.5607L13.9292 11.7507C14.5592 11.2007 14.9392 10.4207 14.9892 9.5907C15.0292 8.8707 14.7492 8.17066 14.2092 7.68066C13.5892 7.19066 12.8092 6.94066 12.0192 6.99066C11.2292 6.95066 10.4492 7.20066 9.82919 7.68066C9.27919 8.15066 8.96919 8.84068 8.98919 9.57068H10.6892C10.6792 9.24068 10.8092 8.92067 11.0592 8.69067C11.3292 8.46067 11.6792 8.34066 12.0292 8.36066C12.3792 8.33066 12.7192 8.45067 12.9792 8.69067C13.2092 8.95067 13.3192 9.30069 13.2992 9.65069C13.2992 9.97069 13.1992 10.2806 13.0192 10.5406C12.7592 10.8706 12.4692 11.1707 12.1592 11.4407C11.7792 11.7707 11.4692 12.1607 11.2492 12.6107C11.0803 13.0675 11.0003 13.5442 11.0188 14.0307ZM11.1592 15.4907C10.9805 15.6495 10.9004 15.8872 10.8992 16.1254C10.8992 16.1238 10.8992 16.1222 10.8992 16.1207V16.1307C10.8992 16.1289 10.8992 16.1272 10.8992 16.1254C10.9004 16.3538 10.9903 16.5818 11.1492 16.7407C11.3392 16.9207 11.5992 17.0107 11.8592 16.9907C12.1192 17.0107 12.3792 16.9207 12.5692 16.7407C12.7292 16.5807 12.8192 16.3507 12.8192 16.1207C12.8192 15.8907 12.7292 15.6607 12.5592 15.4907C12.3692 15.3207 12.1192 15.2307 11.8592 15.2407C11.5992 15.2307 11.3492 15.3207 11.1592 15.4907Z" fill="#555555"/>
</svg>
