<svg width="24" height="24" viewBox="0 0 24 24" fill="none" xmlns="http://www.w3.org/2000/svg">
<path fill-rule="evenodd" clip-rule="evenodd" d="M3.25 4C3.25 3.58579 3.58579 3.25 4 3.25H20C20.4142 3.25 20.75 3.58579 20.75 4V6C20.75 6.19891 20.671 6.38968 20.5303 6.53033L14.75 12.3107V18C14.75 18.2841 14.5895 18.5438 14.3354 18.6708L10.3354 20.6708C10.1029 20.7871 9.82681 20.7746 9.6057 20.638C9.38459 20.5013 9.25 20.2599 9.25 20V12.3107L3.46967 6.53033C3.32902 6.38968 3.25 6.19891 3.25 6V4ZM4.75 4.75V5.68934L10.5303 11.4697C10.671 11.6103 10.75 11.8011 10.75 12V18.7865L13.25 17.5365V12C13.25 11.8011 13.329 11.6103 13.4697 11.4697L19.25 5.68934V4.75H4.75Z" fill="#555555"/>
</svg>
