<svg width="24" height="24" viewBox="0 0 24 24" fill="none" xmlns="http://www.w3.org/2000/svg">
<path fill-rule="evenodd" clip-rule="evenodd" d="M20.2656 3.69824C20.4287 3.8614 20.5076 4.09057 20.4796 4.31958L19.5076 12.2665C19.5077 12.271 19.5077 12.2756 19.5077 12.2802C19.5077 12.4793 19.4286 12.6701 19.2878 12.8108L10.7991 21.2926C10.5063 21.5852 10.0317 21.5852 9.73889 21.2926L2.66495 14.2244C2.52417 14.0838 2.44507 13.8929 2.44507 13.6939C2.44507 13.4949 2.52417 13.304 2.66495 13.1633L11.0892 4.74595C11.2097 4.59437 11.3866 4.49244 11.5854 4.46817L19.6443 3.48405C19.8733 3.45608 20.1024 3.53508 20.2656 3.69824ZM12.0315 5.92483L4.25616 13.6939L10.269 19.7018L18.0362 11.9409L18.8743 5.08922L12.0315 5.92483ZM14.7064 8.26038C14.1541 8.26038 13.7064 8.7081 13.7064 9.26038C13.7064 9.81267 14.1541 10.2604 14.7064 10.2604C15.2587 10.2604 15.7064 9.81267 15.7064 9.26038C15.7064 8.7081 15.2587 8.26038 14.7064 8.26038ZM12.2064 9.26038C12.2064 7.87967 13.3257 6.76038 14.7064 6.76038C16.0871 6.76038 17.2064 7.87967 17.2064 9.26038C17.2064 10.6411 16.0871 11.7604 14.7064 11.7604C13.3257 11.7604 12.2064 10.6411 12.2064 9.26038Z" fill="#555555"/>
</svg>
