<svg width="24" height="24" viewBox="0 0 24 24" fill="none" xmlns="http://www.w3.org/2000/svg">
<path fill-rule="evenodd" clip-rule="evenodd" d="M4.75 11.9996C4.75 7.99577 7.99577 4.75 11.9996 4.75C16.0035 4.75 19.2493 7.99577 19.2493 11.9996C19.2493 13.4851 18.8033 14.8642 18.038 16.013C17.9043 16.2137 17.8753 16.4664 17.96 16.6922L18.7195 18.7175L16.6948 17.9582C16.4689 17.8735 16.2161 17.9026 16.0154 18.0365C14.8661 18.8027 13.4862 19.2493 11.9996 19.2493C7.99577 19.2493 4.75 16.0035 4.75 11.9996ZM11.9996 3.25C7.16734 3.25 3.25 7.16734 3.25 11.9996C3.25 16.8319 7.16734 20.7493 11.9996 20.7493C13.6517 20.7493 15.1985 20.2907 16.5177 19.4939L19.7377 20.7013C20.0131 20.8046 20.3234 20.7374 20.5314 20.5294C20.7394 20.3215 20.8066 20.0111 20.7033 19.7358L19.4955 16.515C20.2914 15.1964 20.7493 13.6505 20.7493 11.9996C20.7493 7.16734 16.8319 3.25 11.9996 3.25ZM8 13C8.55228 13 9 12.5523 9 12C9 11.4477 8.55228 11 8 11C7.44772 11 7 11.4477 7 12C7 12.5523 7.44772 13 8 13ZM13 12C13 12.5523 12.5523 13 12 13C11.4477 13 11 12.5523 11 12C11 11.4477 11.4477 11 12 11C12.5523 11 13 11.4477 13 12ZM16 13C16.5523 13 17 12.5523 17 12C17 11.4477 16.5523 11 16 11C15.4477 11 15 11.4477 15 12C15 12.5523 15.4477 13 16 13Z" fill="#555555"/>
</svg>
