<svg width="24" height="24" viewBox="0 0 24 24" fill="none" xmlns="http://www.w3.org/2000/svg">
<path fill-rule="evenodd" clip-rule="evenodd" d="M4 3.25C3.58579 3.25 3.25 3.58579 3.25 4V8V20C3.25 20.4142 3.58579 20.75 4 20.75H20C20.4142 20.75 20.75 20.4142 20.75 20V8V4C20.75 3.58579 20.4142 3.25 20 3.25H4ZM19.25 7.25V4.75H4.75V7.25H19.25ZM4.75 8.75H19.25V19.25H4.75V8.75ZM6.25 11.2422C6.25 10.828 6.58579 10.4922 7 10.4922H17C17.4142 10.4922 17.75 10.828 17.75 11.2422V17C17.75 17.4142 17.4142 17.75 17 17.75H7C6.58579 17.75 6.25 17.4142 6.25 17V11.2422ZM7.75 11.9922V16.25H16.25V11.9922H7.75ZM6.5489 5.24222C6.13469 5.24222 5.7989 5.578 5.7989 5.99222C5.7989 6.40643 6.13469 6.74222 6.5489 6.74222H8.5489C8.96311 6.74222 9.2989 6.40643 9.2989 5.99222C9.2989 5.578 8.96311 5.24222 8.5489 5.24222H6.5489Z" fill="#555555"/>
</svg>
