<svg width="24" height="24" viewBox="0 0 24 24" fill="none" xmlns="http://www.w3.org/2000/svg">
<path d="M3 4H5.03561C5.50241 3.99921 5.95733 4.14322 6.33436 4.41116C6.7114 4.6791 6.99095 5.05703 7.13245 5.49011L9.57366 13.2461H9.21398C8.7289 13.2461 8.26369 13.4337 7.92069 13.7676C7.57769 14.1016 7.38499 14.5545 7.38499 15.0268C7.38701 15.4977 7.5806 15.9488 7.92339 16.2811C8.26617 16.6134 8.73023 16.8 9.21398 16.8H16.8667M7.8 7.2H19V8.62305L17.5324 13.6H8.86667M11.5333 18.4C11.5333 19.2837 10.817 20 9.93333 20C9.04968 20 8.33333 19.2837 8.33333 18.4C8.33333 17.5163 9.04968 16.8 9.93333 16.8C10.817 16.8 11.5333 17.5163 11.5333 18.4ZM19 18.4C19 19.2837 18.2837 20 17.4 20C16.5163 20 15.8 19.2837 15.8 18.4C15.8 17.5163 16.5163 16.8 17.4 16.8C18.2837 16.8 19 17.5163 19 18.4Z" stroke="#555555" stroke-width="1.5" stroke-miterlimit="10" stroke-linecap="round" stroke-linejoin="round"/>
</svg>
