<svg width="24" height="24" viewBox="0 0 24 24" fill="none" xmlns="http://www.w3.org/2000/svg">
<path fill-rule="evenodd" clip-rule="evenodd" d="M3.75 17.5C3.33579 17.5 3 17.1642 3 16.75V4.75C3 4.33579 3.33579 4 3.75 4H19.75C20.1642 4 20.5 4.33579 20.5 4.75V16.75C20.5 17.1642 20.1642 17.5 19.75 17.5H3.75ZM4.5 16H19V5.5H4.5V16Z" fill="#555555"/>
<path fill-rule="evenodd" clip-rule="evenodd" d="M8.75 19.75C8.75 20.3023 8.30229 20.75 7.75 20.75C7.19772 20.75 6.75 20.3023 6.75 19.75C6.75 19.1977 7.19772 18.75 7.75 18.75C8.30229 18.75 8.75 19.1977 8.75 19.75ZM12.75 19.75C12.75 20.3023 12.3023 20.75 11.75 20.75C11.1977 20.75 10.75 20.3023 10.75 19.75C10.75 19.1977 11.1977 18.75 11.75 18.75C12.3023 18.75 12.75 19.1977 12.75 19.75ZM15.75 20.75C16.3023 20.75 16.75 20.3023 16.75 19.75C16.75 19.1977 16.3023 18.75 15.75 18.75C15.1977 18.75 14.75 19.1977 14.75 19.75C14.75 20.3023 15.1977 20.75 15.75 20.75Z" fill="#555555"/>
</svg>
