<svg width="24" height="24" viewBox="0 0 24 24" fill="none" xmlns="http://www.w3.org/2000/svg">
<path fill-rule="evenodd" clip-rule="evenodd" d="M6 4.25C5.0335 4.25 4.25 5.0335 4.25 6V16C4.25 16.9665 5.0335 17.75 6 17.75H16C16.9665 17.75 17.75 16.9665 17.75 16V6C17.75 5.0335 16.9665 4.25 16 4.25H6ZM5.75 6C5.75 5.86193 5.86193 5.75 6 5.75H16C16.1381 5.75 16.25 5.86193 16.25 6V16C16.25 16.1381 16.1381 16.25 16 16.25H6C5.86193 16.25 5.75 16.1381 5.75 16V6ZM20.25 15C20.25 14.5858 19.9142 14.25 19.5 14.25C19.0858 14.25 18.75 14.5858 18.75 15V18.5C18.75 18.6381 18.6381 18.75 18.5 18.75H15C14.5858 18.75 14.25 19.0858 14.25 19.5C14.25 19.9142 14.5858 20.25 15 20.25H18.5C19.4665 20.25 20.25 19.4665 20.25 18.5V15Z" fill="#555555"/>
</svg>
