<svg width="24" height="24" viewBox="0 0 24 24" fill="none" xmlns="http://www.w3.org/2000/svg">
<path fill-rule="evenodd" clip-rule="evenodd" d="M16.3391 4C16.3391 3.58579 16.6749 3.25 17.0891 3.25H21C21.4142 3.25 21.75 3.58579 21.75 4V20C21.75 20.4142 21.4142 20.75 21 20.75H3C2.58579 20.75 2.25 20.4142 2.25 20C2.25 19.5858 2.58579 19.25 3 19.25H5.38364V15.9937C5.38364 15.5795 5.71942 15.2437 6.13364 15.2437H8.50909V11.9958C8.50909 11.5816 8.84488 11.2458 9.25909 11.2458H12.4282V7.99791C12.4282 7.5837 12.764 7.24791 13.1782 7.24791H16.3391V4ZM6.88364 19.25H20.25V4.75H17.8391V7.99791C17.8391 8.41212 17.5033 8.74791 17.0891 8.74791H13.9282V11.9958C13.9282 12.41 13.5924 12.7458 13.1782 12.7458H10.0091V15.9937C10.0091 16.4079 9.6733 16.7437 9.25909 16.7437H6.88364V19.25Z" fill="#555555"/>
</svg>
