<svg width="24" height="24" viewBox="0 0 24 24" fill="none" xmlns="http://www.w3.org/2000/svg">
<path fill-rule="evenodd" clip-rule="evenodd" d="M7.60719 3.58203C6.64069 3.58203 5.85719 4.36553 5.85719 5.33203V6.9165H5.39258C4.42608 6.9165 3.64258 7.70001 3.64258 8.6665V18.6665C3.64258 19.633 4.42608 20.4165 5.39258 20.4165H15.3926C16.3591 20.4165 17.1426 19.633 17.1426 18.6665V18.082H18.6072C19.5737 18.082 20.3572 17.2985 20.3572 16.332V5.33203C20.3572 4.36553 19.5737 3.58203 18.6072 3.58203H7.60719ZM17.1426 16.582H18.6072C18.7453 16.582 18.8572 16.4701 18.8572 16.332V5.33203C18.8572 5.19396 18.7453 5.08203 18.6072 5.08203H7.60719C7.46912 5.08203 7.35719 5.19396 7.35719 5.33203V6.9165H15.3926C16.3591 6.9165 17.1426 7.70001 17.1426 8.6665V16.582ZM5.14258 8.6665C5.14258 8.52843 5.25451 8.4165 5.39258 8.4165H15.3926C15.5306 8.4165 15.6426 8.52843 15.6426 8.6665V18.6665C15.6426 18.8046 15.5306 18.9165 15.3926 18.9165H5.39258C5.25451 18.9165 5.14258 18.8046 5.14258 18.6665V8.6665Z" fill="#555555"/>
</svg>
