<svg width="24" height="24" viewBox="0 0 24 24" fill="none" xmlns="http://www.w3.org/2000/svg">
<path fill-rule="evenodd" clip-rule="evenodd" d="M21 4.25C21.4142 4.25 21.75 4.58579 21.75 5V15V19C21.75 19.4142 21.4142 19.75 21 19.75H3C2.58579 19.75 2.25 19.4142 2.25 19V15V5C2.25 4.58579 2.58579 4.25 3 4.25H21ZM3.75 14.25H20.25V5.75H3.75V14.25ZM3.75 15.75V18.25H20.25V15.75H3.75ZM5 7.75C5 7.33579 5.33579 7 5.75 7H7.25C7.66421 7 8 7.33579 8 7.75C8 8.16421 7.66421 8.5 7.25 8.5V12C7.66421 12 8 12.3358 8 12.75C8 13.1642 7.66421 13.5 7.25 13.5H5.75C5.33579 13.5 5 13.1642 5 12.75C5 12.3358 5.33579 12 5.75 12L5.75 8.5C5.33579 8.5 5 8.16421 5 7.75Z" fill="#555555"/>
</svg>
