<svg width="24" height="24" viewBox="0 0 24 24" fill="none" xmlns="http://www.w3.org/2000/svg">
<path fill-rule="evenodd" clip-rule="evenodd" d="M21.75 5C21.75 4.58579 21.4142 4.25 21 4.25H3C2.58579 4.25 2.25 4.58579 2.25 5V15V19C2.25 19.4142 2.58579 19.75 3 19.75H21C21.4142 19.75 21.75 19.4142 21.75 19V15V5ZM20.25 14.25H3.75V5.75H20.25V14.25ZM3.75 18.25V15.75H6.93516V18.25H3.75ZM12.8072 18.25H15.7179V15.75H12.8072V18.25ZM11.3072 18.25V15.75H8.43516V18.25H11.3072ZM20.25 18.25H17.2179V15.75H20.25V18.25ZM5.75 7C5.33579 7 5 7.33579 5 7.75C5 8.16421 5.33579 8.5 5.75 8.5L5.75 12C5.33579 12 5 12.3358 5 12.75C5 13.1642 5.33579 13.5 5.75 13.5H7.25C7.66421 13.5 8 13.1642 8 12.75C8 12.3358 7.66421 12 7.25 12V8.5C7.66421 8.5 8 8.16421 8 7.75C8 7.33579 7.66421 7 7.25 7H5.75Z" fill="#555555"/>
</svg>
