<svg width="24" height="24" viewBox="0 0 24 24" fill="none" xmlns="http://www.w3.org/2000/svg">
<path fill-rule="evenodd" clip-rule="evenodd" d="M4 3.25C3.58579 3.25 3.25 3.58579 3.25 4V20C3.25 20.4142 3.58579 20.75 4 20.75H20C20.4142 20.75 20.75 20.4142 20.75 20V4C20.75 3.58579 20.4142 3.25 20 3.25H4ZM4.75 19.25V4.75H19.25V19.25H4.75ZM6.51563 8.82464C6.70281 9.01181 6.93882 9.1054 7.22365 9.1054C7.45966 9.1054 7.65497 9.03216 7.8096 8.88567C7.96422 8.73918 8.04154 8.55201 8.04154 8.32414C8.04154 8.09627 7.96829 7.90909 7.82181 7.7626C7.67532 7.61612 7.48814 7.54287 7.26027 7.54287C7.16261 7.54287 7.07716 7.55915 7.00392 7.5917C7.06288 7.26743 7.30681 6.99747 7.52865 6.75197L7.52865 6.75197L7.52865 6.75197C7.61302 6.6586 7.69419 6.56877 7.76077 6.48084C8.00242 6.16169 7.65198 5.99177 7.48 6.05359C7.30802 6.1154 6.78419 6.54188 6.56446 6.9081C6.35287 7.27431 6.24707 7.6446 6.24707 8.01896C6.24707 8.3689 6.33659 8.63746 6.51563 8.82464ZM12.0027 7.22207C11.5885 7.22207 11.2527 7.55785 11.2527 7.97207C11.2527 8.38628 11.5885 8.72207 12.0027 8.72207H17.0027C17.4169 8.72207 17.7527 8.38628 17.7527 7.97207C17.7527 7.55785 17.4169 7.22207 17.0027 7.22207H12.0027ZM7.00269 16.2221C6.58847 16.2221 6.25269 16.5579 6.25269 16.9721C6.25269 17.3863 6.58847 17.7221 7.00269 17.7221H12.0027C12.4169 17.7221 12.7527 17.3863 12.7527 16.9721C12.7527 16.5579 12.4169 16.2221 12.0027 16.2221H7.00269ZM13.2527 16.9721C13.2527 16.5579 13.5885 16.2221 14.0027 16.2221H15.0027C15.4169 16.2221 15.7527 16.5579 15.7527 16.9721C15.7527 17.3863 15.4169 17.7221 15.0027 17.7221H14.0027C13.5885 17.7221 13.2527 17.3863 13.2527 16.9721ZM7.00269 10.2221C6.58847 10.2221 6.25269 10.5579 6.25269 10.9721C6.25269 11.3863 6.58847 11.7221 7.00269 11.7221H17.0027C17.4169 11.7221 17.7527 11.3863 17.7527 10.9721C17.7527 10.5579 17.4169 10.2221 17.0027 10.2221H7.00269ZM6.25269 13.9721C6.25269 13.5579 6.58847 13.2221 7.00269 13.2221H17.0027C17.4169 13.2221 17.7527 13.5579 17.7527 13.9721C17.7527 14.3863 17.4169 14.7221 17.0027 14.7221H7.00269C6.58847 14.7221 6.25269 14.3863 6.25269 13.9721ZM9.3688 9.10547C9.08396 9.10547 8.84796 9.01188 8.66078 8.8247C8.48174 8.63752 8.39222 8.36896 8.39222 8.01902C8.39222 7.64467 8.49802 7.27438 8.70961 6.90816C8.92934 6.54194 9.45317 6.11547 9.62515 6.05365C9.79713 5.99184 10.1476 6.16176 9.90592 6.48091C9.83934 6.56884 9.75817 6.65867 9.6738 6.75204L9.6738 6.75204C9.45196 6.99754 9.20803 7.2675 9.14907 7.59177C9.22231 7.55922 9.30776 7.54294 9.40542 7.54294C9.63329 7.54294 9.82047 7.61618 9.96696 7.76267C10.1134 7.90916 10.1867 8.09633 10.1867 8.3242C10.1867 8.55207 10.1094 8.73925 9.95475 8.88574C9.80012 9.03222 9.60481 9.10547 9.3688 9.10547Z" fill="#555555"/>
</svg>
