<svg width="24" height="24" viewBox="0 0 24 24" fill="none" xmlns="http://www.w3.org/2000/svg">
<path fill-rule="evenodd" clip-rule="evenodd" d="M9 5.25C5.27208 5.25 2.25 8.27208 2.25 12C2.25 15.7279 5.27208 18.75 9 18.75H15C18.7279 18.75 21.75 15.7279 21.75 12C21.75 8.27208 18.7279 5.25 15 5.25H9ZM3.75 12C3.75 9.10051 6.10051 6.75 9 6.75H15C17.8995 6.75 20.25 9.10051 20.25 12C20.25 14.8995 17.8995 17.25 15 17.25H9C6.1005 17.25 3.75 14.8995 3.75 12ZM12.75 12C12.75 10.7574 13.7574 9.75 15 9.75C16.2426 9.75 17.25 10.7574 17.25 12C17.25 13.2426 16.2426 14.25 15 14.25C13.7574 14.25 12.75 13.2426 12.75 12ZM15 8.25C12.9289 8.25 11.25 9.92893 11.25 12C11.25 14.0711 12.9289 15.75 15 15.75C17.0711 15.75 18.75 14.0711 18.75 12C18.75 9.92893 17.0711 8.25 15 8.25Z" fill="#555555"/>
</svg>
