<svg width="24" height="24" viewBox="0 0 24 24" fill="none" xmlns="http://www.w3.org/2000/svg">
<path fill-rule="evenodd" clip-rule="evenodd" d="M9.5 5.75C6.32436 5.75 3.75 8.32436 3.75 11.5C3.75 14.6756 6.32436 17.25 9.5 17.25H14.5C14.5484 17.25 14.5967 17.2494 14.6448 17.2482C14.787 17.2447 14.9272 17.2817 15.0492 17.3549L17.2499 18.6753L17.2499 17.2238C17.2483 17.2187 17.2467 17.2136 17.2452 17.2084C17.1524 16.8876 17.2829 16.5441 17.5653 16.3658C19.1801 15.3461 20.25 13.5477 20.25 11.5C20.25 8.32436 17.6756 5.75 14.5 5.75H9.5ZM18.7499 17.3743C20.5663 16.058 21.75 13.9175 21.75 11.5C21.75 7.49594 18.5041 4.25 14.5 4.25H9.5C5.49594 4.25 2.25 7.49594 2.25 11.5C2.25 15.5041 5.49594 18.75 9.5 18.75H14.4589L17.6141 20.6431C17.8458 20.7821 18.1344 20.7858 18.3695 20.6526C18.6047 20.5195 18.75 20.2702 18.75 20L18.7499 17.3743Z" fill="#555555"/>
</svg>
