<svg width="24" height="24" viewBox="0 0 24 24" fill="none" xmlns="http://www.w3.org/2000/svg">
<path fill-rule="evenodd" clip-rule="evenodd" d="M2 4.75C2 4.33579 2.33579 4 2.75 4H9.43295H16.1073C16.5216 4 16.8573 4.33579 16.8573 4.75V6.42076C16.8573 6.83497 16.5216 7.17076 16.1073 7.17076C15.6931 7.17076 15.3573 6.83497 15.3573 6.42076V5.5H10.1829V19.0278H11.1038C11.518 19.0278 11.8538 19.3636 11.8538 19.7778C11.8538 20.192 11.518 20.5278 11.1038 20.5278H9.45345L9.43295 20.5281L9.41245 20.5278H7.76227C7.34805 20.5278 7.01227 20.192 7.01227 19.7778C7.01227 19.3636 7.34805 19.0278 7.76227 19.0278H8.68295V5.5H3.5V6.42076C3.5 6.83497 3.16421 7.17076 2.75 7.17076C2.33579 7.17076 2 6.83497 2 6.42076V4.75ZM16.9471 9.01269H21.1196C21.5338 9.01269 21.8696 9.34848 21.8696 9.76269V11.4247C21.8696 11.8389 21.5338 12.1747 21.1196 12.1747C20.7054 12.1747 20.3696 11.8389 20.3696 11.4247V10.5127H17.6971V19.0278H18.6179C19.0321 19.0278 19.3679 19.3636 19.3679 19.7778C19.3679 20.192 19.0321 20.5278 18.6179 20.5278H16.9794C16.9687 20.5283 16.9579 20.5285 16.9471 20.5285C16.9362 20.5285 16.9255 20.5283 16.9147 20.5278H15.2764C14.8622 20.5278 14.5264 20.192 14.5264 19.7778C14.5264 19.3636 14.8622 19.0278 15.2764 19.0278H16.1971V10.5127H13.5245V11.4247C13.5245 11.8389 13.1887 12.1747 12.7745 12.1747C12.3603 12.1747 12.0245 11.8389 12.0245 11.4247V9.76269C12.0245 9.34848 12.3603 9.01269 12.7745 9.01269H16.9471Z" fill="#555555"/>
</svg>
