<svg width="24" height="24" viewBox="0 0 24 24" fill="none" xmlns="http://www.w3.org/2000/svg">
<path fill-rule="evenodd" clip-rule="evenodd" d="M12.5303 3.46967C12.3897 3.32902 12.1989 3.25 12 3.25C11.8011 3.25 11.6103 3.32902 11.4697 3.46967L6.46967 8.46967C6.17678 8.76256 6.17678 9.23744 6.46967 9.53033C6.76256 9.82322 7.23744 9.82322 7.53033 9.53033L11.25 5.81066V17C11.25 17.4142 11.5858 17.75 12 17.75C12.4142 17.75 12.75 17.4142 12.75 17V5.81066L16.4697 9.53033C16.7626 9.82322 17.2374 9.82322 17.5303 9.53033C17.8232 9.23744 17.8232 8.76256 17.5303 8.46967L12.5303 3.46967ZM4 13.25C4.41421 13.25 4.75 13.5858 4.75 14V19.25H19.25V14C19.25 13.5858 19.5858 13.25 20 13.25C20.4142 13.25 20.75 13.5858 20.75 14V20C20.75 20.4142 20.4142 20.75 20 20.75H4C3.58579 20.75 3.25 20.4142 3.25 20V14C3.25 13.5858 3.58579 13.25 4 13.25Z" fill="#555555"/>
</svg>
