<svg width="41" height="41" viewBox="0 0 41 41" fill="none" xmlns="http://www.w3.org/2000/svg">
<path d="M0.5 20.0996C0.5 9.05391 9.45431 0.0996094 20.5 0.0996094V0.0996094C31.5457 0.0996094 40.5 9.05391 40.5 20.0996V20.0996C40.5 31.1453 31.5457 40.0996 20.5 40.0996V40.0996C9.45431 40.0996 0.5 31.1453 0.5 20.0996V20.0996Z" fill="#F2FDE4"/>
<path fill-rule="evenodd" clip-rule="evenodd" d="M29.2071 13.3925C29.5976 13.783 29.5976 14.4162 29.2071 14.8067L18.2071 25.8067C17.8166 26.1972 17.1834 26.1972 16.7929 25.8067L11.7929 20.8067C11.4024 20.4162 11.4024 19.783 11.7929 19.3925C12.1834 19.002 12.8166 19.002 13.2071 19.3925L17.5 23.6854L27.7929 13.3925C28.1834 13.002 28.8166 13.002 29.2071 13.3925Z" fill="#09AF00"/>
</svg>
