<svg width="24" height="24" viewBox="0 0 24 24" fill="none" xmlns="http://www.w3.org/2000/svg">
<path d="M4.50721 21.6077C4.24461 21.6077 3.982 21.5201 3.7194 21.2575C3.63187 21.17 3.54433 20.9949 3.4568 20.9074C3.36926 20.7323 3.36926 20.6448 3.36926 20.4697V3.48806C3.36926 3.31299 3.36926 3.13792 3.4568 3.05039C3.63187 2.61272 3.982 2.35011 4.41968 2.35011H13.3482L18.6878 8.03985V10.6659L18.1626 11.2786V8.56505L17.9 8.21492H13.3482C12.998 8.21492 12.7354 8.03985 12.7354 7.68971V3.13792L12.4728 2.87532H4.50721C4.15707 2.87532 3.982 3.13792 3.982 3.48806V20.4697C3.982 20.8199 4.24461 21.0825 4.50721 21.0825H9.49667L8.97146 21.6077H4.50721Z" fill="#323DA3"/>
<path d="M16.1103 12.4319C13.4695 12.4319 11.3263 14.5752 11.3263 17.2159C11.3263 19.8567 13.4695 22 16.1103 22C18.7511 22 20.8944 19.8567 20.8944 17.2159C20.8944 14.5752 18.7511 12.4319 16.1103 12.4319ZM15.4655 19.296C15.2932 19.4683 15.0138 19.4683 14.8415 19.296L13.099 17.5535C12.9126 17.3671 12.9126 17.0648 13.099 16.8784C13.2852 16.6922 13.5871 16.692 13.7736 16.878L14.9295 18.0307C15.0533 18.1541 15.2536 18.154 15.3772 18.0304L18.445 14.9627C18.6324 14.7753 18.9364 14.7758 19.1231 14.9639C19.3089 15.151 19.3084 15.4531 19.1219 15.6396L15.4655 19.296Z" fill="#323DA3"/>
<path d="M13.2596 2.52522L13.6972 2.96289L16.4108 5.85153L18.074 7.60221L18.4241 8.03989V10.4908V8.56509L17.8989 8.03989H13.3471C13.172 8.03989 13.0845 7.95235 13.0845 7.77728V3.13796L12.5593 2.61276H13.2596V2.52522ZM4.06847 2.70029C3.80587 2.87536 3.71833 3.13796 3.71833 3.4881C3.71833 3.40057 3.71833 3.2255 3.80587 3.13796C3.80587 2.96289 3.8934 2.78782 4.06847 2.70029ZM3.71833 20.3822C3.71833 20.6448 3.80587 20.8199 3.8934 20.995C3.80587 20.9074 3.80587 20.8199 3.80587 20.8199C3.71833 20.6448 3.71833 20.5573 3.71833 20.3822ZM13.5222 2.00002H4.50614C3.98093 2.00002 3.45573 2.35015 3.28066 2.87536C3.10559 3.05043 3.10559 3.2255 3.10559 3.4881V20.4698C3.10559 20.6448 3.10559 20.8199 3.19313 20.995C3.28066 21.17 3.36819 21.3451 3.45573 21.4326C3.71833 21.6952 4.06847 21.8703 4.41861 21.8703H9.05793L10.1083 20.7324H4.50614C4.41861 20.7324 4.24354 20.5573 4.24354 20.3822V3.4881C4.24354 3.31303 4.33107 3.13796 4.50614 3.13796H12.4718V7.68975C12.4718 8.12742 12.8219 8.47756 13.2596 8.47756H17.8114V11.9789L18.9493 10.6659V7.86482L18.4241 7.25208L16.761 5.50139L14.0474 2.61276L13.5222 2.00002Z" fill="#323DA3"/>
<path fill-rule="evenodd" clip-rule="evenodd" d="M10.1964 9.60293H5.64465V8.57777H10.1964V9.60293Z" fill="#323DA3"/>
<path fill-rule="evenodd" clip-rule="evenodd" d="M12.4723 12.4915H5.64465V11.4663H12.4723V12.4915Z" fill="#323DA3"/>
</svg>
