<svg width="24" height="24" viewBox="0 0 24 24" fill="none" xmlns="http://www.w3.org/2000/svg">
<g id="icon_default">
<g id="Vector">
<path d="M19.9419 4.94194C20.186 4.69786 20.186 4.30214 19.9419 4.05806C19.6979 3.81398 19.3021 3.81398 19.058 4.05806L13.2247 9.89139C12.9806 10.1355 12.9806 10.5312 13.2247 10.7753C13.4688 11.0194 13.8645 11.0194 14.1086 10.7753L19.9419 4.94194Z" fill="white"/>
<path d="M5.33331 13.0417C4.98813 13.0417 4.70831 13.3215 4.70831 13.6667C4.70831 14.0118 4.98813 14.2917 5.33331 14.2917H9.70831V18.6667C9.70831 19.0118 9.98813 19.2917 10.3333 19.2917C10.6785 19.2917 10.9583 19.0118 10.9583 18.6667V13.6667C10.9583 13.3215 10.6785 13.0417 10.3333 13.0417H5.33331Z" fill="white"/>
<path d="M14.2917 5.33334C14.2917 4.98817 14.0118 4.70834 13.6667 4.70834C13.3215 4.70834 13.0417 4.98817 13.0417 5.33334V10.3333C13.0417 10.6785 13.3215 10.9583 13.6667 10.9583H18.6667C19.0118 10.9583 19.2917 10.6785 19.2917 10.3333C19.2917 9.98817 19.0118 9.70834 18.6667 9.70834H14.2917V5.33334Z" fill="white"/>
<path d="M10.7753 14.1086C11.0194 13.8645 11.0194 13.4688 10.7753 13.2247C10.5312 12.9806 10.1355 12.9806 9.89139 13.2247L4.05806 19.058C3.81398 19.3021 3.81398 19.6979 4.05806 19.9419C4.30214 20.186 4.69786 20.186 4.94194 19.9419L10.7753 14.1086Z" fill="white"/>
</g>
</g>
</svg>
