<svg width="24" height="25" viewBox="0 0 24 25" fill="none" xmlns="http://www.w3.org/2000/svg">
<g id="icon_default">
<path id="Vector" fill-rule="evenodd" clip-rule="evenodd" d="M4.21967 6.27778C3.92678 6.57067 3.92678 7.04554 4.21967 7.33844L9.68934 12.8081L4.21967 18.2778C3.92678 18.5707 3.92678 19.0455 4.21967 19.3384C4.51256 19.6313 4.98744 19.6313 5.28033 19.3384L11.2803 13.3384C11.5732 13.0455 11.5732 12.5707 11.2803 12.2778L5.28033 6.27778C4.98744 5.98488 4.51256 5.98488 4.21967 6.27778Z" fill="#999999"/>
<path id="Vector_2" fill-rule="evenodd" clip-rule="evenodd" d="M11.4697 6.27778C11.1768 6.57067 11.1768 7.04554 11.4697 7.33844L16.9393 12.8081L11.4697 18.2778C11.1768 18.5707 11.1768 19.0455 11.4697 19.3384C11.7626 19.6313 12.2374 19.6313 12.5303 19.3384L18.5303 13.3384C18.8232 13.0455 18.8232 12.5707 18.5303 12.2778L12.5303 6.27778C12.2374 5.98488 11.7626 5.98488 11.4697 6.27778Z" fill="#999999"/>
</g>
</svg>
