<svg width="17" height="17" viewBox="0 0 17 17" fill="none" xmlns="http://www.w3.org/2000/svg">
<g id="icon_default">
<path id="Union" fill-rule="evenodd" clip-rule="evenodd" d="M3.7 15.0996C3.11652 15.0996 2.55694 14.8678 2.14437 14.4552C1.73178 14.0426 1.5 13.483 1.5 12.8996V3.29961C1.5 2.71613 1.73178 2.15655 2.14437 1.74398C2.55694 1.33139 3.11652 1.09961 3.7 1.09961H8.5C8.65912 1.09961 8.81176 1.16283 8.92424 1.27535C9.0368 1.38787 9.1 1.54048 9.1 1.69961C9.1 1.85874 9.0368 2.01135 8.92424 2.12387C8.81176 2.23639 8.65912 2.29961 8.5 2.29961H3.7C3.43478 2.29961 3.18043 2.40497 2.9929 2.59251C2.80536 2.78004 2.7 3.03439 2.7 3.29961V12.8996C2.7 13.1648 2.80536 13.4192 2.9929 13.6067C3.18043 13.7942 3.43478 13.8996 3.7 13.8996H13.3C13.5652 13.8996 13.8196 13.7942 14.0071 13.6067C14.1946 13.4192 14.3 13.1648 14.3 12.8996V8.09961C14.3 7.94049 14.3632 7.78785 14.4758 7.67537C14.5882 7.56281 14.7409 7.49961 14.9 7.49961C15.0591 7.49961 15.2118 7.56281 15.3242 7.67537C15.4368 7.78785 15.5 7.94049 15.5 8.09961V12.8996C15.5 13.483 15.2682 14.0426 14.8556 14.4552C14.443 14.8678 13.8834 15.0996 13.3 15.0996H3.7ZM14.9 5.49961C14.7415 5.49754 14.5901 5.43366 14.478 5.32158C14.3659 5.2095 14.3021 5.0581 14.3 4.89961V3.18928L9.39814 8.00147C9.29606 8.11787 9.15246 8.18963 8.99814 8.20147C8.84382 8.18963 8.70022 8.11787 8.59814 8.00147C8.49974 7.89147 8.44534 7.74907 8.44534 7.60147C8.44534 7.45387 8.49974 7.31147 8.59814 7.20147L13.5 2.29961H11.7C11.5409 2.29961 11.3882 2.23639 11.2758 2.12387C11.1632 2.01135 11.1 1.85874 11.1 1.69961C11.1 1.54048 11.1632 1.38787 11.2758 1.27535C11.3882 1.16283 11.5409 1.09961 11.7 1.09961H14.9C15.0585 1.10168 15.2099 1.16556 15.322 1.27763C15.4341 1.38971 15.4979 1.54112 15.5 1.69961V4.89961C15.4979 5.0581 15.4341 5.2095 15.322 5.32158C15.2099 5.43366 15.0585 5.49754 14.9 5.49961Z" fill="#555555"/>
</g>
</svg>
