<svg width="16" height="17" viewBox="0 0 16 17" fill="none" xmlns="http://www.w3.org/2000/svg">
<g id="icon_default">
<path id="Union" fill-rule="evenodd" clip-rule="evenodd" d="M3.2 15.0996C2.61652 15.0996 2.05694 14.8679 1.64437 14.4552C1.23178 14.0427 1 13.4831 1 12.8996V3.29964C1 2.71616 1.23178 2.15658 1.64437 1.74401C2.05694 1.33142 2.61652 1.09964 3.2 1.09964H8C8.15912 1.09964 8.31176 1.16286 8.42424 1.27538C8.5368 1.3879 8.6 1.54051 8.6 1.69964C8.6 1.85877 8.5368 2.01138 8.42424 2.1239C8.31176 2.23642 8.15912 2.29964 8 2.29964H3.2C2.93478 2.29964 2.68043 2.405 2.4929 2.59254C2.30536 2.78007 2.2 3.03442 2.2 3.29964V12.8996C2.2 13.1648 2.30536 13.4192 2.4929 13.6068C2.68043 13.7943 2.93478 13.8996 3.2 13.8996H12.8C13.0652 13.8996 13.3196 13.7943 13.5071 13.6068C13.6946 13.4192 13.8 13.1648 13.8 12.8996V8.09964C13.8 7.94052 13.8632 7.78788 13.9758 7.6754C14.0882 7.56284 14.2409 7.49964 14.4 7.49964C14.5591 7.49964 14.7118 7.56284 14.8242 7.6754C14.9368 7.78788 15 7.94052 15 8.09964V12.8996C15 13.4831 14.7682 14.0427 14.3556 14.4552C13.943 14.8679 13.3834 15.0996 12.8 15.0996H3.2ZM14.4 5.49964C14.2415 5.49757 14.0901 5.43369 13.978 5.32162C13.8659 5.20954 13.8021 5.05813 13.8 4.89964V3.18931L8.89814 8.0015C8.79606 8.1179 8.65246 8.18966 8.49814 8.2015C8.34382 8.18966 8.20022 8.1179 8.09814 8.0015C7.99974 7.8915 7.94534 7.7491 7.94534 7.6015C7.94534 7.4539 7.99974 7.3115 8.09814 7.2015L13 2.29964H11.2C11.0409 2.29964 10.8882 2.23642 10.7758 2.1239C10.6632 2.01138 10.6 1.85877 10.6 1.69964C10.6 1.54051 10.6632 1.3879 10.7758 1.27538C10.8882 1.16286 11.0409 1.09964 11.2 1.09964H14.4C14.5585 1.10171 14.7099 1.16559 14.822 1.27766C14.9341 1.38974 14.9979 1.54115 15 1.69964V4.89964C14.9979 5.05813 14.9341 5.20954 14.822 5.32162C14.7099 5.43369 14.5585 5.49757 14.4 5.49964Z" fill="#1E40AF"/>
</g>
</svg>
