<svg width="24" height="24" viewBox="0 0 24 24" fill="none" xmlns="http://www.w3.org/2000/svg">
<g id="icon_default">
<path id="Vector" d="M11.6642 2C6.29866 2 1.94397 6.48 1.94397 12C1.94397 17.52 6.29866 22 11.6642 22C17.0298 22 21.3845 17.52 21.3845 12C21.3845 6.48 17.0298 2 11.6642 2ZM10.3861 16.315C10.0214 16.6901 9.41898 16.6901 9.05432 16.315L5.52637 12.6855C5.15536 12.3038 5.15536 11.6962 5.52637 11.3145C5.9122 10.9176 6.54948 10.9171 6.93586 11.3135L9.26503 13.703C9.5144 13.9589 9.92569 13.9586 10.1747 13.7024L16.3882 7.31014C16.7764 6.91072 17.4182 6.91185 17.805 7.31264C18.1748 7.69576 18.1737 8.30321 17.8026 8.68501L10.3861 16.315Z" fill="#09AF00"/>
</g>
</svg>
