<svg width="120" height="120" viewBox="0 0 120 120" fill="none" xmlns="http://www.w3.org/2000/svg">
<path d="M0 60C0 26.8629 26.8629 0 60 0C93.1371 0 120 26.8629 120 60C120 93.1371 93.1371 120 60 120C26.8629 120 0 93.1371 0 60Z" fill="#EEEEEE"/>
<mask id="mask0_1944_1792" style="mask-type:alpha" maskUnits="userSpaceOnUse" x="0" y="0" width="120" height="120">
<path d="M0 60C0 26.8629 26.8629 0 60 0C93.1371 0 120 26.8629 120 60C120 93.1371 93.1371 120 60 120C26.8629 120 0 93.1371 0 60Z" fill="#EEEEEE"/>
</mask>
<g mask="url(#mask0_1944_1792)">
<path d="M96 120.8H24V43.2C27.3936 43.1962 30.6471 41.8464 33.0468 39.4468C35.4464 37.0471 36.7962 33.7936 36.8 30.4H83.2C83.1964 32.0811 83.5262 33.7462 84.1704 35.299C84.8146 36.8518 85.7603 38.2615 86.9528 39.4464C88.1377 40.6393 89.5474 41.5853 91.1004 42.2296C92.6533 42.8739 94.3187 43.2037 96 43.2V120.8Z" fill="white"/>
<path d="M60 82.4C70.6039 82.4 79.2001 73.8039 79.2001 63.2C79.2001 52.5961 70.6039 44 60 44C49.3962 44 40.8 52.5961 40.8 63.2C40.8 73.8039 49.3962 82.4 60 82.4Z" fill="#323DA3"/>
<path d="M66.7882 72.2511L60 65.4629L53.2118 72.2511L50.949 69.9883L57.7373 63.2001L50.949 56.4119L53.2118 54.1492L60 60.9374L66.7882 54.1492L69.051 56.4119L62.2627 63.2001L69.051 69.9883L66.7882 72.2511Z" fill="white"/>
<path d="M70.4 87.2H49.6C48.2745 87.2 47.2 88.2745 47.2 89.6C47.2 90.9255 48.2745 92 49.6 92H70.4C71.7254 92 72.8 90.9255 72.8 89.6C72.8 88.2745 71.7254 87.2 70.4 87.2Z" fill="#EEEEEE"/>
<path d="M77.6 96.8H42.4C41.0745 96.8 40 97.8745 40 99.2C40 100.525 41.0745 101.6 42.4 101.6H77.6C78.9255 101.6 80 100.525 80 99.2C80 97.8745 78.9255 96.8 77.6 96.8Z" fill="#EEEEEE"/>
</g>
</svg>
