<svg width="24" height="24" viewBox="0 0 24 24" fill="none" xmlns="http://www.w3.org/2000/svg">
<g id="icon_default">
<path id="Vector" fill-rule="evenodd" clip-rule="evenodd" d="M18.8128 5.53643C19.1057 5.24354 19.1057 4.76867 18.8128 4.47577C18.5199 4.18288 18.045 4.18288 17.7521 4.47577L11.6442 10.5837L5.53619 4.47577C5.2433 4.18288 4.76842 4.18288 4.47553 4.47577C4.18264 4.76867 4.18264 5.24354 4.47553 5.53643L10.5835 11.6444L4.47553 17.7524C4.18264 18.0453 4.18264 18.5201 4.47553 18.813C4.76842 19.1059 5.2433 19.1059 5.53619 18.813L11.6442 12.7051L17.7521 18.813C18.045 19.1059 18.5199 19.1059 18.8128 18.813C19.1057 18.5201 19.1057 18.0453 18.8128 17.7524L12.7048 11.6444L18.8128 5.53643Z" fill="#333333"/>
</g>
</svg>
