<svg width="36" height="36" viewBox="0 0 36 36" fill="none" xmlns="http://www.w3.org/2000/svg">
<g filter="url(#filter0_dd_2228_107436)">
<path d="M3.825 18C3.825 25.8286 10.1714 32.175 18 32.175C25.8286 32.175 32.175 25.8286 32.175 18C32.175 10.1714 25.8286 3.825 18 3.825C10.1714 3.825 3.825 10.1714 3.825 18Z" fill="#333333"/>
<path d="M3.825 18C3.825 25.8286 10.1714 32.175 18 32.175C25.8286 32.175 32.175 25.8286 32.175 18C32.175 10.1714 25.8286 3.825 18 3.825C10.1714 3.825 3.825 10.1714 3.825 18Z" stroke="white" stroke-width="1.35"/>
<path fill-rule="evenodd" clip-rule="evenodd" d="M13.1556 15.994C12.9877 16.0146 12.8187 16.0354 12.6482 16.0524H12.6477V10.4101H11.007V9.31513C11.0241 9.31411 11.0408 9.31292 11.0572 9.31175C11.0958 9.30901 11.1327 9.30637 11.1699 9.30637C11.3884 9.30625 11.6068 9.30604 11.8252 9.30583C12.4803 9.30519 13.1352 9.30455 13.7904 9.30637C14.9783 9.30978 15.9196 10.216 15.9308 11.4005C15.9413 12.4765 15.939 13.5527 15.9367 14.629C15.9357 15.0874 15.9347 15.5458 15.9347 16.0042C15.9347 16.0339 15.9288 16.0631 15.9298 16.0548C15.7609 16.0379 15.5926 16.0171 15.4248 15.9963C15.0435 15.9492 14.6646 15.9023 14.2856 15.9016C13.9109 15.9009 13.5361 15.9471 13.1556 15.994ZM26.704 20.8126C26.5985 20.8097 26.4769 20.7713 26.3917 20.7095C26.1161 20.5089 25.8436 20.3043 25.5711 20.0998C25.3295 19.9184 25.088 19.7371 24.8443 19.5586C24.7383 19.4807 24.7042 19.3985 24.7052 19.2711C24.7106 18.5127 24.7125 17.7539 24.7067 16.9955C24.6955 15.4272 23.5129 14.249 21.9456 14.2451C20.7231 14.2421 19.5005 14.2432 18.2782 14.2443L17.231 14.2451C17.1879 14.2451 17.1448 14.2478 17.1024 14.2504L17.1023 14.2504C17.082 14.2517 17.0618 14.2529 17.0417 14.2539V15.3426H17.266C17.6896 15.3426 18.1132 15.3428 18.5368 15.343H18.5369H18.5372C19.6669 15.3436 20.7966 15.3441 21.9262 15.3406C22.3236 15.3396 22.6831 15.4394 22.992 15.6899C23.3957 16.0173 23.6015 16.4414 23.6034 16.9848H17.7962C17.8031 16.997 17.8079 17.0062 17.8116 17.0134C17.8175 17.0249 17.8206 17.031 17.8254 17.0349C17.8487 17.054 17.8727 17.0723 17.8967 17.0905C17.9113 17.1016 17.9259 17.1127 17.9402 17.1239C19.2536 18.1513 20.0344 19.49 20.2606 21.142C20.2873 21.337 20.3515 21.3711 20.5262 21.3696C21.2327 21.3642 21.9396 21.3649 22.6463 21.3657H22.6466C22.8924 21.366 23.1382 21.3662 23.384 21.3662H23.6083C23.6083 21.467 23.6074 21.5652 23.6065 21.6614V21.6614C23.6044 21.8889 23.6024 22.1057 23.6127 22.3221C23.62 22.4836 23.5674 22.5473 23.4147 22.6018C22.4111 22.9588 21.8167 23.9833 21.9918 25.0287C22.165 26.0624 23.0883 26.847 24.138 26.8538C25.2014 26.8606 26.1456 26.0765 26.3154 25.0452C26.4934 23.9638 25.8878 22.935 24.8614 22.5887C24.7456 22.5497 24.7004 22.5021 24.7028 22.3741C24.7086 22.0667 24.708 21.7594 24.7073 21.452V21.4518C24.707 21.2981 24.7067 21.1444 24.7072 20.9907C24.7072 20.961 24.7116 20.9313 24.7171 20.8951V20.895C24.7197 20.8779 24.7225 20.8592 24.7252 20.8384C24.8404 20.9246 24.9546 21.0082 25.0676 21.0909C25.3263 21.2801 25.578 21.4642 25.8177 21.6629C26.0512 21.8566 26.291 21.9378 26.5951 21.9217C26.9164 21.905 27.2389 21.9086 27.5646 21.9123H27.5646C27.7034 21.9138 27.8428 21.9154 27.9829 21.9154V20.8175C27.8656 20.8175 27.7491 20.818 27.6331 20.8185H27.6328H27.6328C27.3199 20.8198 27.0113 20.8212 26.7026 20.8126H26.704ZM14.6052 16.9921C12.2761 16.853 10.162 18.3464 9.54031 20.5792C9.48281 20.7855 9.44484 20.9971 9.40686 21.2089C9.38924 21.307 9.37162 21.4052 9.35205 21.5029V22.3406C9.35552 22.3537 9.35961 22.3667 9.3637 22.3798L9.3637 22.3798C9.37221 22.407 9.38071 22.4341 9.38367 22.4617C9.6984 25.2155 12.2031 27.1778 14.9365 26.812C17.698 26.4418 19.6029 23.8656 19.1525 21.1099C18.7838 18.8576 16.874 17.1283 14.6052 16.9926V16.9921ZM14.2841 24.1142C13.0802 24.1117 12.083 23.1072 12.0912 21.9057C12.0995 20.7066 13.0923 19.7211 14.29 19.723C15.4886 19.7245 16.479 20.7134 16.4824 21.912C16.4858 23.116 15.4861 24.1171 14.2841 24.1142Z" fill="white"/>
</g>
<defs>
<filter id="filter0_dd_2228_107436" x="-2" y="-1" width="40" height="40" filterUnits="userSpaceOnUse" color-interpolation-filters="sRGB">
<feFlood flood-opacity="0" result="BackgroundImageFix"/>
<feColorMatrix in="SourceAlpha" type="matrix" values="0 0 0 0 0 0 0 0 0 0 0 0 0 0 0 0 0 0 127 0" result="hardAlpha"/>
<feOffset/>
<feGaussianBlur stdDeviation="0.5"/>
<feComposite in2="hardAlpha" operator="out"/>
<feColorMatrix type="matrix" values="0 0 0 0 0 0 0 0 0 0 0 0 0 0 0 0 0 0 0.2 0"/>
<feBlend mode="normal" in2="BackgroundImageFix" result="effect1_dropShadow_2228_107436"/>
<feColorMatrix in="SourceAlpha" type="matrix" values="0 0 0 0 0 0 0 0 0 0 0 0 0 0 0 0 0 0 127 0" result="hardAlpha"/>
<feOffset dy="1"/>
<feGaussianBlur stdDeviation="1"/>
<feComposite in2="hardAlpha" operator="out"/>
<feColorMatrix type="matrix" values="0 0 0 0 0 0 0 0 0 0 0 0 0 0 0 0 0 0 0.12 0"/>
<feBlend mode="normal" in2="effect1_dropShadow_2228_107436" result="effect2_dropShadow_2228_107436"/>
<feBlend mode="normal" in="SourceGraphic" in2="effect2_dropShadow_2228_107436" result="shape"/>
</filter>
</defs>
</svg>
