<svg width="24" height="25" viewBox="0 0 24 25" fill="none" xmlns="http://www.w3.org/2000/svg">
<g id="icon_default">
<path id="Vector" fill-rule="evenodd" clip-rule="evenodd" d="M4.41675 12.0996C4.41675 7.91141 7.81192 4.51624 12.0001 4.51624C16.1882 4.51624 19.5834 7.91141 19.5834 12.0996C19.5834 16.2877 16.1882 19.6829 12.0001 19.6829C7.81192 19.6829 4.41675 16.2877 4.41675 12.0996ZM12.0001 3.01624C6.98349 3.01624 2.91675 7.08298 2.91675 12.0996C2.91675 17.1162 6.98349 21.1829 12.0001 21.1829C17.0167 21.1829 21.0834 17.1162 21.0834 12.0996C21.0834 7.08298 17.0167 3.01624 12.0001 3.01624ZM14.547 9.43327C14.4415 8.54477 13.9814 7.86548 13.1452 7.43583C12.5412 7.12566 11.8793 7.05966 11.2047 7.11966C9.92247 7.23314 9.09396 7.91582 8.59735 8.99998C8.52344 9.16145 8.57991 9.27832 8.74794 9.34823C9.09479 9.49249 9.44191 9.63649 9.78932 9.7797C9.97755 9.85744 10.101 9.8144 10.1832 9.63962C10.2923 9.40823 10.4448 9.20554 10.6214 9.01589C10.7892 8.83589 10.9993 8.73285 11.2473 8.70416C11.3973 8.68668 11.5507 8.67885 11.7013 8.68668C12.4736 8.72581 12.9434 9.32267 12.7695 10.033C12.6953 10.3359 12.5093 10.5785 12.2915 10.7973C12.131 10.9585 11.9633 11.1132 11.7956 11.2678L11.7955 11.2679C11.687 11.368 11.5784 11.4681 11.4718 11.57C11.1377 11.8893 10.8495 12.241 10.7668 12.6946C10.7111 12.999 10.6863 13.3089 10.6615 13.6176L10.6571 13.6726C10.6411 13.8711 10.7488 13.9648 10.963 13.9663C11.1031 13.9674 11.2431 13.9671 11.3832 13.9668L11.5742 13.9666C11.6381 13.9666 11.7019 13.9668 11.7657 13.9671C11.9126 13.9676 12.0594 13.9682 12.2062 13.9658C12.3983 13.9627 12.4894 13.8735 12.4946 13.6932L12.4956 13.6657C12.4968 13.6293 12.498 13.593 12.4971 13.5565C12.4866 13.0343 12.6699 12.5931 13.0859 12.2352C13.3251 12.0294 13.5474 11.8048 13.7644 11.5776C14.3463 10.9685 14.6458 10.262 14.5472 9.43301L14.547 9.43327ZM11.5042 14.8723C11.0048 14.8846 10.568 15.1958 10.4141 15.6486C10.263 16.0934 10.4301 16.5846 10.8235 16.8695C10.9949 16.9937 11.1919 17.0534 11.3968 17.0993H11.7077C11.7125 17.0973 11.7172 17.095 11.7219 17.0926C11.732 17.0877 11.7421 17.0827 11.7528 17.0808C12.3723 16.9676 12.7906 16.4406 12.7203 15.861C12.6499 15.2795 12.1298 14.8567 11.5042 14.872V14.8723Z" fill="#333333"/>
</g>
</svg>
