<svg width="48" height="36" viewBox="0 0 48 36" fill="none" xmlns="http://www.w3.org/2000/svg">
<path fill-rule="evenodd" clip-rule="evenodd" d="M22.3758 12.6551C22.4775 12.5533 22.6156 12.4961 22.7595 12.4961H25.2401C25.384 12.4961 25.522 12.5533 25.6238 12.6551C25.7256 12.7568 25.7827 12.8948 25.7827 13.0388V13.5814H22.2168V13.0388C22.2168 12.8948 22.274 12.7568 22.3758 12.6551ZM21.5145 14.9767L21.5192 14.9767L21.5238 14.9767H26.4758L26.4804 14.9767L26.485 14.9767H27.6432V22.9612C27.6432 23.1051 27.586 23.2432 27.4843 23.3449C27.3825 23.4467 27.2445 23.5039 27.1006 23.5039H20.899C20.7551 23.5039 20.6171 23.4467 20.5153 23.3449C20.4135 23.2432 20.3564 23.1051 20.3564 22.9612V14.9767H21.5145ZM20.8215 13.5814V13.0388C20.8215 12.5248 21.0257 12.0318 21.3891 11.6684C21.7526 11.3049 22.2455 11.1008 22.7595 11.1008H25.2401C25.7541 11.1008 26.247 11.3049 26.6105 11.6684C26.9739 12.0318 27.1781 12.5248 27.1781 13.0388V13.5814H29.5812C29.9665 13.5814 30.2788 13.8937 30.2788 14.279C30.2788 14.6644 29.9665 14.9767 29.5812 14.9767H29.0385V22.9612C29.0385 23.4752 28.8344 23.9682 28.4709 24.3316C28.1075 24.695 27.6145 24.8992 27.1006 24.8992H20.899C20.385 24.8992 19.8921 24.695 19.5287 24.3316C19.1652 23.9682 18.961 23.4752 18.961 22.9612V14.9767H18.4184C18.0331 14.9767 17.7207 14.6644 17.7207 14.279C17.7207 13.8937 18.0331 13.5814 18.4184 13.5814H19.6587H20.8215ZM22.7594 16.6822C23.1448 16.6822 23.4571 16.9945 23.4571 17.3798V21.1008C23.4571 21.4861 23.1448 21.7984 22.7594 21.7984C22.3741 21.7984 22.0618 21.4861 22.0618 21.1008V17.3798C22.0618 16.9945 22.3741 16.6822 22.7594 16.6822ZM25.9378 17.3798C25.9378 16.9945 25.6254 16.6822 25.2401 16.6822C24.8548 16.6822 24.5424 16.9945 24.5424 17.3798V21.1008C24.5424 21.4861 24.8548 21.7984 25.2401 21.7984C25.6254 21.7984 25.9378 21.4861 25.9378 21.1008V17.3798Z" fill="#555555"/>
</svg>
