<svg width="32" height="32" viewBox="0 0 32 32" fill="none" xmlns="http://www.w3.org/2000/svg">
<g id="icon_default">
<path id="Vector" fill-rule="evenodd" clip-rule="evenodd" d="M25.084 7.38191C25.4746 6.99139 25.4746 6.35822 25.084 5.9677C24.6935 5.57717 24.0604 5.57717 23.6698 5.9677L15.5259 14.1117L7.38191 5.9677C6.99139 5.57717 6.35822 5.57717 5.9677 5.9677C5.57717 6.35822 5.57717 6.99139 5.9677 7.38191L14.1117 15.5259L5.9677 23.6698C5.57717 24.0604 5.57717 24.6935 5.9677 25.084C6.35822 25.4746 6.99139 25.4746 7.38191 25.084L15.5259 16.9401L23.6698 25.084C24.0604 25.4746 24.6935 25.4746 25.084 25.084C25.4746 24.6935 25.4746 24.0604 25.084 23.6698L16.9401 15.5259L25.084 7.38191Z" fill="#333333"/>
</g>
</svg>
