<svg width="24" height="24" viewBox="0 0 24 24" fill="none" xmlns="http://www.w3.org/2000/svg">
<path fill-rule="evenodd" clip-rule="evenodd" d="M3.4834 9.76131C3.4834 8.29058 4.47819 7.33984 5.53086 7.33984H7.7896H13.2659C13.7684 7.33984 14.2785 7.57176 14.6746 8.03385C15.0737 8.49952 15.3134 9.15271 15.3134 9.85354C15.3134 11.3243 14.3186 12.275 13.2659 12.275H11.9265C11.5123 12.275 11.1765 12.6108 11.1765 13.025C11.1765 13.4392 11.5123 13.775 11.9265 13.775H13.2659C15.304 13.775 16.8134 11.9865 16.8134 9.85354C16.8134 8.8232 16.4636 7.81612 15.8135 7.05767C15.1603 6.29564 14.2474 5.83984 13.2659 5.83984H7.7896H5.53086C3.49281 5.83984 1.9834 7.62834 1.9834 9.76131C1.9834 10.7917 2.33321 11.7987 2.98331 12.5572C3.63648 13.3192 4.54942 13.775 5.53086 13.775C5.94507 13.775 6.28086 13.4392 6.28086 13.025C6.28086 12.6108 5.94507 12.275 5.53086 12.275C5.02842 12.275 4.51828 12.0431 4.1222 11.581C3.72305 11.1153 3.4834 10.4621 3.4834 9.76131ZM20.5166 14.2379C20.5166 15.708 19.5223 16.6582 18.4701 16.6582H16.2122H10.7378C10.2357 16.6582 9.72578 16.4264 9.32989 15.9645C8.93093 15.4991 8.69138 14.8462 8.69138 14.1457C8.69138 12.6756 9.68572 11.7253 10.7378 11.7253H12.0768C12.491 11.7253 12.8268 11.3896 12.8268 10.9753C12.8268 10.5611 12.491 10.2253 12.0768 10.2253H10.7378C8.70034 10.2253 7.19138 12.0134 7.19138 14.1457C7.19138 15.1757 7.54109 16.1825 8.191 16.9407C8.84398 17.7025 9.75667 18.1582 10.7378 18.1582H16.2122H18.4701C20.5076 18.1582 22.0166 16.3702 22.0166 14.2379C22.0166 13.2078 21.6669 12.2011 21.017 11.4428C20.364 10.681 19.4513 10.2253 18.4701 10.2253C18.0559 10.2253 17.7201 10.5611 17.7201 10.9753C17.7201 11.3896 18.0559 11.7253 18.4701 11.7253C18.9723 11.7253 19.4822 11.9571 19.8781 12.419C20.2771 12.8845 20.5166 13.5374 20.5166 14.2379Z" fill="#555555"/>
</svg>
