<svg width="24" height="24" viewBox="0 0 24 24" fill="none" xmlns="http://www.w3.org/2000/svg">
<path fill-rule="evenodd" clip-rule="evenodd" d="M9.25 8.5C9.25 6.98122 10.4812 5.75 12 5.75C13.5188 5.75 14.75 6.98122 14.75 8.5C14.75 10.0188 13.5188 11.25 12 11.25C10.4812 11.25 9.25 10.0188 9.25 8.5ZM12 4.25C9.65279 4.25 7.75 6.15279 7.75 8.5C7.75 10.8472 9.65279 12.75 12 12.75C14.3472 12.75 16.25 10.8472 16.25 8.5C16.25 6.15279 14.3472 4.25 12 4.25ZM6.25 18C6.25 16.2051 7.70507 14.75 9.5 14.75H14.5C16.2949 14.75 17.75 16.2051 17.75 18V19C17.75 19.4142 18.0858 19.75 18.5 19.75C18.9142 19.75 19.25 19.4142 19.25 19V18C19.25 15.3766 17.1234 13.25 14.5 13.25H9.5C6.87665 13.25 4.75 15.3766 4.75 18V19C4.75 19.4142 5.08579 19.75 5.5 19.75C5.91421 19.75 6.25 19.4142 6.25 19V18Z" fill="#555555"/>
</svg>
