<svg width="24" height="24" viewBox="0 0 24 24" fill="none" xmlns="http://www.w3.org/2000/svg">
<path fill-rule="evenodd" clip-rule="evenodd" d="M5 6.25C3.48122 6.25 2.25 7.48122 2.25 9V15C2.25 16.5188 3.48122 17.75 5 17.75H19C20.5188 17.75 21.75 16.5188 21.75 15V9C21.75 7.48122 20.5188 6.25 19 6.25H5ZM3.75 9C3.75 8.30964 4.30964 7.75 5 7.75H19C19.6904 7.75 20.25 8.30964 20.25 9V15C20.25 15.6904 19.6904 16.25 19 16.25H5C4.30964 16.25 3.75 15.6904 3.75 15V9ZM6.75 12C6.75 11.3096 7.30964 10.75 8 10.75C8.69036 10.75 9.25 11.3096 9.25 12C9.25 12.6904 8.69036 13.25 8 13.25C7.30964 13.25 6.75 12.6904 6.75 12ZM8 9.25C6.48122 9.25 5.25 10.4812 5.25 12C5.25 13.5188 6.48122 14.75 8 14.75C9.51878 14.75 10.75 13.5188 10.75 12C10.75 10.4812 9.51878 9.25 8 9.25Z" fill="#555555"/>
</svg>
