<svg width="24" height="24" viewBox="0 0 24 24" fill="none" xmlns="http://www.w3.org/2000/svg">
<path fill-rule="evenodd" clip-rule="evenodd" d="M2.75 6C2.75 5.58579 3.08579 5.25 3.5 5.25H10.5C10.9142 5.25 11.25 5.58579 11.25 6V18C11.25 18.4142 10.9142 18.75 10.5 18.75H3.5C3.08579 18.75 2.75 18.4142 2.75 18V6ZM4.25 6.75V17.25H9.75V6.75H4.25ZM8.28033 9.96967C8.57322 10.2626 8.57322 10.7374 8.28033 11.0303L7.31066 12L8.28033 12.9697C8.57322 13.2626 8.57322 13.7374 8.28033 14.0303C7.98744 14.3232 7.51256 14.3232 7.21967 14.0303L5.71967 12.5303C5.42678 12.2374 5.42678 11.7626 5.71967 11.4697L7.21967 9.96967C7.51256 9.67678 7.98744 9.67678 8.28033 9.96967ZM12.75 6C12.75 5.58579 13.0858 5.25 13.5 5.25H20.5C20.9142 5.25 21.25 5.58579 21.25 6V18C21.25 18.4142 20.9142 18.75 20.5 18.75H13.5C13.0858 18.75 12.75 18.4142 12.75 18V6ZM19.75 6.75H14.25V17.25H19.75V6.75ZM15.7197 14.0303C15.4268 13.7374 15.4268 13.2626 15.7197 12.9697L16.6893 12L15.7197 11.0303C15.4268 10.7374 15.4268 10.2626 15.7197 9.96967C16.0126 9.67678 16.4874 9.67678 16.7803 9.96967L18.2803 11.4697C18.5732 11.7626 18.5732 12.2374 18.2803 12.5303L16.7803 14.0303C16.4874 14.3232 16.0126 14.3232 15.7197 14.0303Z" fill="#555555"/>
</svg>
