<svg width="24" height="24" viewBox="0 0 24 24" fill="none" xmlns="http://www.w3.org/2000/svg">
<path fill-rule="evenodd" clip-rule="evenodd" d="M9 5.25C5.27208 5.25 2.25 8.27208 2.25 12C2.25 15.7279 5.27208 18.75 9 18.75H15C18.7279 18.75 21.75 15.7279 21.75 12C21.75 8.27208 18.7279 5.25 15 5.25H9ZM3.75 12C3.75 9.10051 6.10051 6.75 9 6.75H15C17.8995 6.75 20.25 9.10051 20.25 12C20.25 14.8995 17.8995 17.25 15 17.25H9C6.1005 17.25 3.75 14.8995 3.75 12ZM15.5303 10.5303C15.8232 10.2374 15.8232 9.76256 15.5303 9.46967C15.2374 9.17678 14.7626 9.17678 14.4697 9.46967L11 12.9393L9.53033 11.4697C9.23744 11.1768 8.76256 11.1768 8.46967 11.4697C8.17678 11.7626 8.17678 12.2374 8.46967 12.5303L10.4697 14.5303C10.7626 14.8232 11.2374 14.8232 11.5303 14.5303L15.5303 10.5303Z" fill="#555555"/>
</svg>
