<svg width="24" height="24" viewBox="0 0 24 24" fill="none" xmlns="http://www.w3.org/2000/svg">
<path fill-rule="evenodd" clip-rule="evenodd" d="M12.1234 2.17475C12.4163 1.88185 12.8912 1.88185 13.1841 2.17475L21.851 10.8417C22.1439 11.1346 22.1439 11.6094 21.851 11.9023L16.2153 17.538C16.2045 17.5488 16.1934 17.5592 16.1821 17.5693L14.838 18.9134L14.8316 18.9198L14.8251 18.9259C14.3555 19.3736 13.7316 19.6233 13.0828 19.6233C12.434 19.6233 11.8101 19.3736 11.3405 18.9259L11.334 18.9198L11.3277 18.9134L10.0763 17.6621L6.31416 21.331C5.82806 21.8156 5.16974 22.0881 4.48317 22.0886L4.47564 22.0886L4.46811 22.0884C3.79065 22.0753 3.14535 21.797 2.67092 21.3132C2.19649 20.8294 1.93078 20.1788 1.93091 19.5012L1.93091 19.4937L1.93106 19.4862C1.94459 18.816 2.21691 18.1769 2.69095 17.7029L2.69241 17.7014L6.38853 13.9743L5.14157 12.7273L5.13523 12.721L5.12905 12.7145C4.68138 12.2449 4.43164 11.621 4.43164 10.9722C4.43164 10.3236 4.68119 9.69994 5.12854 9.2304L5.12905 9.22987L6.46825 7.81971L6.99822 7.26166L7.01735 7.2808L12.1234 2.17475ZM12.6537 3.76574L8.0787 8.34077L15.685 15.947L20.26 11.372L15.2494 6.36136L11.8831 9.73526C11.5906 10.0285 11.1157 10.029 10.8225 9.73647C10.5292 9.44391 10.5287 8.96904 10.8212 8.67581L14.1887 5.3007L12.6537 3.76574ZM7.02594 9.41071L6.21574 10.2638L6.21476 10.2649C6.03303 10.4555 5.93164 10.7088 5.93164 10.9722C5.93164 11.233 6.03105 11.4839 6.20944 11.6738L7.9773 13.4417L8.50542 13.9698L7.97952 14.5001L3.75485 18.7603L3.75221 18.763C3.55345 18.9614 3.43852 19.2285 3.43093 19.509C3.43282 19.7911 3.54426 20.0614 3.74188 20.263C3.93949 20.4645 4.20763 20.5811 4.48957 20.5885C4.77746 20.5864 5.05306 20.471 5.25667 20.2671L5.26361 20.2602L5.26365 20.2602L9.55932 16.0711L10.0896 15.554L10.6133 16.0777L12.3811 17.8455C12.5711 18.0239 12.822 18.1233 13.0828 18.1233C13.3436 18.1233 13.5945 18.0239 13.7845 17.8456L14.6226 17.0074L7.02594 9.41071Z" fill="#555555"/>
</svg>
