<svg width="24" height="24" viewBox="0 0 24 24" fill="none" xmlns="http://www.w3.org/2000/svg">
<path d="M12.1201 4H11.897C11.6806 3.99965 11.4677 4.05936 11.2785 4.17345C11.0893 4.28755 10.9301 4.45225 10.816 4.65192L3.19733 17.8858C3.06881 18.1059 3.00039 18.361 3 18.6215C2.99998 18.8041 3.03339 18.9849 3.09827 19.1533C3.16315 19.3218 3.25822 19.4746 3.37796 19.6028C3.49769 19.731 3.6397 19.8322 3.79574 19.9003C3.95179 19.9685 4.11875 20.0023 4.28694 19.9999H19.7302C20.067 19.9999 20.39 19.8547 20.6281 19.5962C20.8662 19.3377 21 18.9871 21 18.6215C20.9996 18.361 20.9312 18.1059 20.8027 17.8858L13.2011 4.65192C13.0871 4.45225 12.9279 4.28755 12.7387 4.17345C12.5495 4.05936 12.3366 3.99965 12.1201 4Z" stroke="#555555" stroke-width="1.5" stroke-miterlimit="10" stroke-linejoin="round"/>
<path fill-rule="evenodd" clip-rule="evenodd" d="M12.75 10C12.75 9.58579 12.4142 9.25 12 9.25C11.5858 9.25 11.25 9.58579 11.25 10V14C11.25 14.4142 11.5858 14.75 12 14.75C12.4142 14.75 12.75 14.4142 12.75 14V10ZM12 17.2363C12.4536 17.2363 12.8213 16.8686 12.8213 16.415C12.8213 15.9615 12.4536 15.5938 12 15.5938C11.5464 15.5938 11.1787 15.9615 11.1787 16.415C11.1787 16.8686 11.5464 17.2363 12 17.2363Z" fill="#555555"/>
</svg>
