<svg width="24" height="24" viewBox="0 0 24 24" fill="none" xmlns="http://www.w3.org/2000/svg">
<path fill-rule="evenodd" clip-rule="evenodd" d="M13.25 4.75H5.75V19.25H18.25V9.75002H14C13.5858 9.75002 13.25 9.41424 13.25 9.00002V4.75ZM19.75 9.00591V20C19.75 20.4142 19.4142 20.75 19 20.75H5C4.58579 20.75 4.25 20.4142 4.25 20V4C4.25 3.58579 4.58579 3.25 5 3.25H13.9998C13.9998 3.25 13.9998 3.25 13.9999 3.25H14C14.1688 3.25 14.3317 3.30691 14.4632 3.41009C14.4866 3.4285 14.509 3.44838 14.5303 3.46967L19.5303 8.46967C19.5483 8.48765 19.5653 8.50645 19.5812 8.52599C19.6432 8.60192 19.6887 8.68812 19.7168 8.77928C19.7393 8.85254 19.7506 8.929 19.75 9.00591ZM14.75 8.25002V5.81068L17.1893 8.25002H14.75Z" fill="#555555"/>
</svg>
