<svg width="24" height="24" viewBox="0 0 24 24" fill="none" xmlns="http://www.w3.org/2000/svg">
<path fill-rule="evenodd" clip-rule="evenodd" d="M12 4.48624C7.85027 4.48624 4.48624 7.85027 4.48624 12C4.48624 16.1497 7.85027 19.5138 12 19.5138C16.1498 19.5138 19.5138 16.1497 19.5138 12C19.5138 7.85027 16.1498 4.48624 12 4.48624ZM3 12C3 7.02944 7.02944 3 12 3C16.9706 3 21 7.02944 21 12C21 16.9706 16.9706 21 12 21C7.02944 21 3 16.9706 3 12ZM12 11.2569C12.4104 11.2569 12.7431 11.5896 12.7431 12V15.3027C12.7431 15.7131 12.4104 16.0459 12 16.0459C11.5896 16.0459 11.2569 15.7131 11.2569 15.3027V12C11.2569 11.5896 11.5896 11.2569 12 11.2569ZM12 7.80551C11.5075 7.80551 11.1083 8.20476 11.1083 8.69726C11.1083 9.18975 11.5075 9.589 12 9.589H12.0082C12.5008 9.589 12.9 9.18975 12.9 8.69726C12.9 8.20476 12.5008 7.80551 12.0082 7.80551H12Z" fill="#555555"/>
</svg>
