<svg width="24" height="24" viewBox="0 0 24 24" fill="none" xmlns="http://www.w3.org/2000/svg">
<path fill-rule="evenodd" clip-rule="evenodd" d="M21.75 7C21.75 6.58579 21.4142 6.25 21 6.25H3C2.58579 6.25 2.25 6.58579 2.25 7V17C2.25 17.4142 2.58579 17.75 3 17.75H21C21.4142 17.75 21.75 17.4142 21.75 17V7ZM3.75 7.75H20.25V16.25H3.75V7.75ZM5.75 9C5.33579 9 5 9.33579 5 9.75C5 10.1642 5.33579 10.5 5.75 10.5L5.75 14C5.33579 14 5 14.3358 5 14.75C5 15.1642 5.33579 15.5 5.75 15.5H7.25C7.66421 15.5 8 15.1642 8 14.75C8 14.3358 7.66421 14 7.25 14V10.5C7.66421 10.5 8 10.1642 8 9.75C8 9.33579 7.66421 9 7.25 9H5.75Z" fill="#555555"/>
</svg>
