<svg width="24" height="24" viewBox="0 0 24 24" fill="none" xmlns="http://www.w3.org/2000/svg">
<path fill-rule="evenodd" clip-rule="evenodd" d="M4.5 6.25C4.08579 6.25 3.75 6.58579 3.75 7C3.75 7.41421 4.08579 7.75 4.5 7.75H4.50833C4.92255 7.75 5.25833 7.41421 5.25833 7C5.25833 6.58579 4.92255 6.25 4.50833 6.25H4.5ZM8.66666 6.25C8.25244 6.25 7.91666 6.58579 7.91666 7C7.91666 7.41421 8.25244 7.75 8.66666 7.75H19.5C19.9142 7.75 20.25 7.41421 20.25 7C20.25 6.58579 19.9142 6.25 19.5 6.25H8.66666ZM8.66666 11.25C8.25244 11.25 7.91666 11.5858 7.91666 12C7.91666 12.4142 8.25244 12.75 8.66666 12.75H19.5C19.9142 12.75 20.25 12.4142 20.25 12C20.25 11.5858 19.9142 11.25 19.5 11.25H8.66666ZM7.91666 17C7.91666 16.5858 8.25244 16.25 8.66666 16.25H19.5C19.9142 16.25 20.25 16.5858 20.25 17C20.25 17.4142 19.9142 17.75 19.5 17.75H8.66666C8.25244 17.75 7.91666 17.4142 7.91666 17ZM3.75 12C3.75 11.5858 4.08579 11.25 4.5 11.25H4.50833C4.92255 11.25 5.25833 11.5858 5.25833 12C5.25833 12.4142 4.92255 12.75 4.50833 12.75H4.5C4.08579 12.75 3.75 12.4142 3.75 12ZM4.5 16.25C4.08579 16.25 3.75 16.5858 3.75 17C3.75 17.4142 4.08579 17.75 4.5 17.75H4.50833C4.92255 17.75 5.25833 17.4142 5.25833 17C5.25833 16.5858 4.92255 16.25 4.50833 16.25H4.5Z" fill="#555555"/>
</svg>
