<svg width="24" height="24" viewBox="0 0 24 24" fill="none" xmlns="http://www.w3.org/2000/svg">
<path fill-rule="evenodd" clip-rule="evenodd" d="M5 2.25C4.58579 2.25 4.25 2.58579 4.25 3V20.1429C4.25 20.3292 4.31936 20.5089 4.44458 20.6469L5.22236 21.504C5.4919 21.801 5.94744 21.8334 6.2563 21.5775L7.84756 20.259L9.44587 21.5784C9.72346 21.8075 10.1247 21.8072 10.4019 21.5775L11.9931 20.259L13.5914 21.5784C13.8686 21.8072 14.2692 21.8072 14.5463 21.5784L16.1456 20.2582L17.7448 21.5784C18.0537 21.8334 18.5085 21.8006 18.7776 21.504L19.5554 20.6469C19.6806 20.5089 19.75 20.3292 19.75 20.1429V3C19.75 2.58579 19.4142 2.25 19 2.25H5ZM5.75 19.8533V3.75H18.25V19.8533L18.1477 19.966L16.623 18.7073C16.3458 18.4785 15.9453 18.4785 15.6681 18.7073L14.0689 20.0275L12.4697 18.7073C12.1921 18.4782 11.7909 18.4785 11.5137 18.7082L9.92244 20.0267L8.32413 18.7073C8.04654 18.4782 7.64531 18.4785 7.36814 18.7082L5.85137 19.965L5.75 19.8533ZM6.75 7.5C6.75 7.08579 7.08579 6.75 7.5 6.75H8.5C8.91421 6.75 9.25 7.08579 9.25 7.5C9.25 7.91421 8.91421 8.25 8.5 8.25H7.5C7.08579 8.25 6.75 7.91421 6.75 7.5ZM9.75 7.5C9.75 7.08579 10.0858 6.75 10.5 6.75H16.5C16.9142 6.75 17.25 7.08579 17.25 7.5C17.25 7.91421 16.9142 8.25 16.5 8.25H10.5C10.0858 8.25 9.75 7.91421 9.75 7.5ZM9.75 11.5C9.75 11.0858 10.0858 10.75 10.5 10.75H16.5C16.9142 10.75 17.25 11.0858 17.25 11.5C17.25 11.9142 16.9142 12.25 16.5 12.25H10.5C10.0858 12.25 9.75 11.9142 9.75 11.5ZM10.5 14.75C10.0858 14.75 9.75 15.0858 9.75 15.5C9.75 15.9142 10.0858 16.25 10.5 16.25H16.5C16.9142 16.25 17.25 15.9142 17.25 15.5C17.25 15.0858 16.9142 14.75 16.5 14.75H10.5ZM7.5 10.75C7.08579 10.75 6.75 11.0858 6.75 11.5C6.75 11.9142 7.08579 12.25 7.5 12.25H8.5C8.91421 12.25 9.25 11.9142 9.25 11.5C9.25 11.0858 8.91421 10.75 8.5 10.75H7.5ZM6.75 15.5C6.75 15.0858 7.08579 14.75 7.5 14.75H8.5C8.91421 14.75 9.25 15.0858 9.25 15.5C9.25 15.9142 8.91421 16.25 8.5 16.25H7.5C7.08579 16.25 6.75 15.9142 6.75 15.5Z" fill="#555555"/>
</svg>
