<svg width="24" height="24" viewBox="0 0 24 24" fill="none" xmlns="http://www.w3.org/2000/svg">
<path fill-rule="evenodd" clip-rule="evenodd" d="M19.75 3C19.75 2.58579 19.4142 2.25 19 2.25H5C4.58579 2.25 4.25 2.58579 4.25 3V21C4.25 21.4142 4.58579 21.75 5 21.75H19C19.4142 21.75 19.75 21.4142 19.75 21V3ZM5.75 3.75H18.25V20.25H5.75V3.75ZM16 12.75C16.4142 12.75 16.75 12.4142 16.75 12V6C16.75 5.58579 16.4142 5.25 16 5.25H8C7.58579 5.25 7.25 5.58579 7.25 6V12C7.25 12.4142 7.58579 12.75 8 12.75H16ZM15.25 6.75V11.25H8.75V6.75H15.25ZM7.25 15C7.25 14.5858 7.58579 14.25 8 14.25H16C16.4142 14.25 16.75 14.5858 16.75 15C16.75 15.4142 16.4142 15.75 16 15.75H8C7.58579 15.75 7.25 15.4142 7.25 15ZM8 17.25C7.58579 17.25 7.25 17.5858 7.25 18C7.25 18.4142 7.58579 18.75 8 18.75H14C14.4142 18.75 14.75 18.4142 14.75 18C14.75 17.5858 14.4142 17.25 14 17.25H8Z" fill="#555555"/>
</svg>
