<svg width="24" height="24" viewBox="0 0 24 24" fill="none" xmlns="http://www.w3.org/2000/svg">
<path fill-rule="evenodd" clip-rule="evenodd" d="M20.5 12C21.3284 12 22 11.3284 22 10.5C22 9.67157 21.3284 9 20.5 9C19.6716 9 19 9.67157 19 10.5C19 11.3284 19.6716 12 20.5 12ZM3.5 14C4.32843 14 5 13.3284 5 12.5C5 11.6716 4.32843 11 3.5 11C2.67157 11 2 11.6716 2 12.5C2 13.3284 2.67157 14 3.5 14ZM9.16667 14C9.99509 14 10.6667 13.3284 10.6667 12.5C10.6667 11.6716 9.99509 11 9.16667 11C8.33824 11 7.66667 11.6716 7.66667 12.5C7.66667 13.3284 8.33824 14 9.16667 14ZM16.3333 12.5C16.3333 13.3284 15.6618 14 14.8333 14C14.0049 14 13.3333 13.3284 13.3333 12.5C13.3333 11.6716 14.0049 11 14.8333 11C15.6618 11 16.3333 11.6716 16.3333 12.5Z" fill="#555555"/>
</svg>
