<svg width="24" height="24" viewBox="0 0 24 24" fill="none" xmlns="http://www.w3.org/2000/svg">
<path fill-rule="evenodd" clip-rule="evenodd" d="M4.88637 11.341C4.88637 7.77617 7.77617 4.88637 11.341 4.88637C14.9057 4.88637 17.7954 7.77617 17.7954 11.341C17.7954 13.0825 17.1058 14.6629 15.9845 15.8239C15.9546 15.8466 15.9259 15.8715 15.8988 15.8988C15.8715 15.9259 15.8466 15.9546 15.8239 15.9845C14.6629 17.1058 13.0825 17.7954 11.341 17.7954C7.77617 17.7954 4.88637 14.9057 4.88637 11.341ZM16.4544 17.6115C15.0606 18.7493 13.2805 19.4318 11.341 19.4318C6.87242 19.4318 3.25 15.8094 3.25 11.341C3.25 6.87242 6.87242 3.25 11.341 3.25C15.8094 3.25 19.4318 6.87242 19.4318 11.341C19.4318 13.2805 18.7493 15.0606 17.6115 16.4544L21.0104 19.8533C21.3299 20.1729 21.3299 20.6908 21.0104 21.0104C20.6908 21.3299 20.1729 21.3299 19.8533 21.0104L16.4544 17.6115Z" fill="#555555"/>
</svg>
