<svg width="24" height="24" viewBox="0 0 24 24" fill="none" xmlns="http://www.w3.org/2000/svg">
<path fill-rule="evenodd" clip-rule="evenodd" d="M2.25 5C2.25 4.58579 2.58579 4.25 3 4.25H21C21.4142 4.25 21.75 4.58579 21.75 5V19C21.75 19.4142 21.4142 19.75 21 19.75H3C2.58579 19.75 2.25 19.4142 2.25 19V5ZM3.75 13V18.25H20.25V13H3.75ZM3.75 11.5H20.25V5.75H3.75V11.5ZM18.8002 6.99311C19.0931 7.286 19.0931 7.76087 18.8002 8.05377L16.3913 10.4626C16.0984 10.7555 15.6236 10.7555 15.3307 10.4626L14.1263 9.25819C13.8334 8.9653 13.8334 8.49043 14.1263 8.19753C14.4191 7.90464 14.894 7.90464 15.1869 8.19753L15.861 8.87163L17.7395 6.99311C18.0324 6.70021 18.5073 6.70021 18.8002 6.99311Z" fill="#555555"/>
</svg>
