<svg width="24" height="24" viewBox="0 0 24 24" fill="none" xmlns="http://www.w3.org/2000/svg">
<path fill-rule="evenodd" clip-rule="evenodd" d="M4 3.25C3.58579 3.25 3.25 3.58579 3.25 4V9V20C3.25 20.4142 3.58579 20.75 4 20.75H7.63223H14.9043H20C20.4142 20.75 20.75 20.4142 20.75 20V9V4C20.75 3.58579 20.4142 3.25 20 3.25H14.9043H7.63223H4ZM19.25 8.25V4.75H14.9043H7.63223H4.75V8.25H7.63223H14.9043H19.25ZM4.75 9.75H7.63223H8.69287V11.9258H4.75V9.75ZM10.1929 11.9258V9.75H14.1182V11.9258H10.1929ZM14.1182 13.4258H10.1929L10.1929 15.666H14.1182L14.1182 13.4258ZM15.6182 15.666L15.6182 13.4258H19.25V15.666H15.6182ZM14.1182 17.166H10.1929V19.25H14.1182V17.166ZM15.6182 19.25V17.166H19.25V19.25H15.6182ZM15.6182 11.9258V9.75H19.25V11.9258H15.6182ZM4.75 13.4258H8.69287L8.69287 15.666H4.75V13.4258ZM4.75 17.166H8.69287V19.25H7.63223H4.75V17.166Z" fill="#555555"/>
</svg>
