<svg width="24" height="24" viewBox="0 0 24 24" fill="none" xmlns="http://www.w3.org/2000/svg">
<path fill-rule="evenodd" clip-rule="evenodd" d="M17.5303 3.46967C17.2375 3.17678 16.7626 3.17678 16.4697 3.46967L4.46969 15.4697C4.37357 15.5658 4.30538 15.6862 4.27241 15.8181L3.27241 19.8181C3.20851 20.0737 3.2834 20.344 3.46969 20.5303C3.65597 20.7166 3.92634 20.7915 4.18192 20.7276L8.18192 19.7276C8.31379 19.6946 8.43423 19.6264 8.53035 19.5303L20.5303 7.53033C20.8232 7.23744 20.8232 6.76256 20.5303 6.46967L17.5303 3.46967ZM5.03079 18.9692L5.67724 16.3834L17 5.06066L18.9394 7L7.61658 18.3228L5.03079 18.9692ZM12 19.25C11.5858 19.25 11.25 19.5858 11.25 20C11.25 20.4142 11.5858 20.75 12 20.75H20C20.4142 20.75 20.75 20.4142 20.75 20C20.75 19.5858 20.4142 19.25 20 19.25H12Z" fill="#555555"/>
</svg>
