<svg width="24" height="24" viewBox="0 0 24 24" fill="none" xmlns="http://www.w3.org/2000/svg">
<path d="M12.6349 13.1953C12.6349 12.7849 12.3021 12.4522 11.8917 12.4522C11.4813 12.4522 11.1486 12.7849 11.1486 13.1953V16.498C11.1486 16.9084 11.4813 17.2411 11.8917 17.2411C12.3021 17.2411 12.6349 16.9084 12.6349 16.498V13.1953Z" fill="#E53935"/>
<path d="M11 9.89254C11 9.40004 11.3992 9.00079 11.8917 9.00079H11.9C12.3925 9.00079 12.7917 9.40004 12.7917 9.89254C12.7917 10.385 12.3925 10.7843 11.9 10.7843H11.8917C11.3992 10.7843 11 10.385 11 9.89254Z" fill="#E53935"/>
<path fill-rule="evenodd" clip-rule="evenodd" d="M21.5456 15.9796L14.9052 4.47808C13.614 2.24168 10.386 2.24168 9.09483 4.47808L2.45444 15.9796C1.16325 18.216 2.77723 21.0115 5.35961 21.0115H18.6404C21.2228 21.0115 22.8368 18.216 21.5456 15.9796ZM10.3399 5.19693C11.0777 3.91898 12.9223 3.91898 13.6601 5.19693L20.3005 16.6984C21.0383 17.9764 20.116 19.5738 18.6404 19.5738H5.35961C3.88397 19.5738 2.96169 17.9764 3.69951 16.6984L10.3399 5.19693Z" fill="#E53935"/>
</svg>
