<svg width="24" height="24" viewBox="0 0 24 24" fill="none" xmlns="http://www.w3.org/2000/svg">
<path fill-rule="evenodd" clip-rule="evenodd" d="M17.6 4.5999H16.1V3.6999C16.1 3.2999 15.8 2.8999 15.3 2.8999C14.8 2.8999 14.5 3.1999 14.5 3.6999V4.5999H9.3V3.6999C9.3 3.2999 9 2.8999 8.5 2.8999C8 2.8999 7.7 3.1999 7.7 3.6999V4.5999H5.9C4.6 4.5999 3.5 5.6999 3.5 6.9999V18.6999C3.5 19.9999 4.6 21.0999 5.9 21.0999H17.6C18.9 21.0999 20 19.9999 20 18.6999V6.9999C20 5.6999 18.9 4.5999 17.6 4.5999ZM18.7 18.6999C18.7 19.1999 18.3 19.5999 17.8 19.5999H5.9C5.4 19.5999 5 19.1999 5 18.6999V11.0999H18.7V18.6999ZM18.8 9.5999H5V6.9999C5 6.4999 5.4 6.0999 5.9 6.0999H7.7V6.9999C7.7 7.4999 8 7.7999 8.5 7.7999C9 7.7999 9.3 7.3999 9.3 6.9999V6.0999H14.5V6.9999C14.5 7.4999 14.8 7.7999 15.3 7.7999C15.8 7.7999 16.1 7.3999 16.1 6.9999V6.0999H17.9C18.4 6.0999 18.8 6.4999 18.8 6.9999V9.5999Z" fill="#555555"/>
</svg>
