<svg width="24" height="25" viewBox="0 0 24 25" fill="none" xmlns="http://www.w3.org/2000/svg">
<g id="icon_default">
<path id="Vector" fill-rule="evenodd" clip-rule="evenodd" d="M18.813 5.63604C19.1059 5.34315 19.1059 4.86828 18.813 4.57538C18.5201 4.28249 18.0453 4.28249 17.7524 4.57538L11.6444 10.6834L5.53643 4.57538C5.24354 4.28249 4.76867 4.28249 4.47577 4.57538C4.18288 4.86828 4.18288 5.34315 4.47577 5.63604L10.5837 11.744L4.47577 17.852C4.18288 18.1449 4.18288 18.6197 4.47577 18.9126C4.76867 19.2055 5.24354 19.2055 5.53643 18.9126L11.6444 12.8047L17.7524 18.9126C18.0453 19.2055 18.5201 19.2055 18.813 18.9126C19.1059 18.6197 19.1059 18.1449 18.813 17.852L12.7051 11.744L18.813 5.63604Z" fill="#616161"/>
</g>
</svg>
