<svg width="27" height="27" viewBox="0 0 27 27" fill="none" xmlns="http://www.w3.org/2000/svg">
<g id="Group">
<path id="Vector" d="M1.96241 25.9304C1.62629 25.9304 1.29016 25.8183 0.95403 25.4822C0.841987 25.3702 0.729945 25.1461 0.617902 25.034C0.505859 24.81 0.505859 24.6979 0.505859 24.4738V2.73756C0.505859 2.51347 0.505859 2.28939 0.617902 2.17735C0.841987 1.61713 1.29016 1.28101 1.85037 1.28101H13.2787L20.1133 8.56378V11.9251L19.4411 12.7094V9.23603L19.1049 8.78786H13.2787C12.8305 8.78786 12.4944 8.56378 12.4944 8.11561V2.28939L12.1583 1.95326H1.96241C1.51424 1.95326 1.29016 2.28939 1.29016 2.73756V24.4738C1.29016 24.922 1.62629 25.2581 1.96241 25.2581H8.34884L7.67659 25.9304H1.96241Z" fill="#323DA3"/>
<path id="Vector_2" d="M13.1649 1.55507L13.7251 2.11528L17.1984 5.81269L19.3273 8.05354L19.7754 8.61375V11.7509V9.28601L19.1032 8.61375H13.277C13.0529 8.61375 12.9408 8.50171 12.9408 8.27763V2.33937L12.2686 1.66711H13.1649V1.55507ZM1.40044 1.77915C1.06431 2.00324 0.952267 2.33937 0.952267 2.78754C0.952267 2.67549 0.952267 2.45141 1.06431 2.33937C1.06431 2.11528 1.17635 1.8912 1.40044 1.77915ZM0.952267 24.4118C0.952267 24.7479 1.06431 24.972 1.17635 25.1961C1.06431 25.084 1.06431 24.972 1.06431 24.972C0.952267 24.7479 0.952267 24.6358 0.952267 24.4118ZM13.501 0.882812H1.96065C1.28839 0.882812 0.616139 1.33098 0.392054 2.00324C0.167969 2.22732 0.167969 2.45141 0.167969 2.78754V24.5238C0.167969 24.7479 0.167969 24.972 0.280011 25.1961C0.392054 25.4201 0.504097 25.6442 0.616139 25.7563C0.952267 26.0924 1.40044 26.3165 1.84861 26.3165H7.78687L9.13138 24.8599H1.96065C1.84861 24.8599 1.62452 24.6358 1.62452 24.4118V2.78754C1.62452 2.56345 1.73657 2.33937 1.96065 2.33937H12.1565V8.16558C12.1565 8.7258 12.6047 9.17397 13.1649 9.17397H18.9911V13.6557L20.4477 11.975V8.38967L19.7754 7.60537L17.6466 5.36452L14.1733 1.66711L13.501 0.882812Z" fill="#323DA3"/>
<path id="Vector_3" d="M22.6713 16.1675L15.6127 23.1142H12.8116V20.3131L19.7582 13.3665L22.6713 16.1675ZM26.8169 15.1591C26.8169 15.4953 26.4808 15.9434 26.0326 16.2796L23.0075 19.3047L21.887 18.1843L25.0242 15.0471L24.2399 14.2628L23.4556 15.1591L20.6546 12.3581L23.3436 9.7811C23.5677 9.55702 24.1279 9.55702 24.464 9.7811L26.1447 11.4617C26.3687 11.6858 26.3687 12.246 26.1447 12.5822C25.9206 12.8063 25.6965 13.0303 25.6965 13.3665C25.6965 13.5905 25.9206 13.8146 26.1447 14.1508C26.4808 14.4869 26.929 14.823 26.8169 15.1591ZM12.0273 21.3215C11.8032 21.3215 11.5791 21.4335 11.4671 21.4335L10.9069 18.7445H8.8901L6.31312 20.8733L7.09742 17.6241H5.30474L4.07227 23.7864H5.86495L9.45031 20.4251L10.2346 23.2262H11.4671L12.0273 23.1142V21.3215Z" fill="#323DA3"/>
<path id="Vector (Stroke)" fill-rule="evenodd" clip-rule="evenodd" d="M9.24419 10.5644H3.41797V9.2522H9.24419V10.5644Z" fill="#323DA3"/>
<path id="Vector (Stroke)_2" fill-rule="evenodd" clip-rule="evenodd" d="M12.1573 14.2616H3.41797V12.9495H12.1573V14.2616Z" fill="#323DA3"/>
</g>
</svg>
