<svg width="27" height="27" viewBox="0 0 27 27" fill="none" xmlns="http://www.w3.org/2000/svg">
<g id="Group">
<path id="Vector" d="M0.588019 25.6464C0.46289 25.4124 0.462891 25.1785 0.462891 24.8276C0.462891 25.1785 0.588019 25.4124 0.588019 25.6464Z" fill="#323DA3"/>
<path id="Vector_2" d="M2.46456 26.4649C2.08918 26.4649 1.71379 26.3479 1.33841 25.997C1.21328 25.8801 1.08815 25.6462 0.963019 25.5292C0.837891 25.2953 0.837891 25.1783 0.837891 24.9444V2.25435C0.837891 2.02044 0.837891 1.78652 0.963019 1.66956C1.21328 1.08476 1.83892 0.733887 2.33944 0.733887H15.1026L22.7354 8.33623V11.845L21.8595 12.6637V9.03798L21.6093 8.57014H15.1026C14.7272 8.57014 14.3518 8.21927 14.3518 7.86839V1.78652L13.9764 1.43564H2.46456C2.08918 1.43564 1.71379 1.78652 1.71379 2.25435V24.9444C1.71379 25.4122 2.08918 25.7631 2.46456 25.7631H9.5969L8.84613 26.5818L2.46456 26.4649Z" fill="#323DA3"/>
<path id="Vector_3" d="M15.1029 0.967868L15.6035 1.55266L19.4825 5.41231L21.8599 7.75149L22.3604 8.33629V11.6111V9.03804L21.4845 8.21933H14.9778C14.7276 8.21933 14.6024 8.10237 14.6024 7.86845V1.78658L13.7265 0.967868H15.1029ZM1.83931 1.20179C1.46392 1.4357 1.33879 1.78658 1.33879 2.25442C1.33879 2.13746 1.33879 1.90354 1.46392 1.78658C1.46392 1.55266 1.58905 1.31874 1.83931 1.20179ZM1.33879 24.9445C1.33879 25.2954 1.46392 25.5293 1.58905 25.7632C1.46392 25.6462 1.46392 25.5293 1.46392 25.5293C1.33879 25.2954 1.33879 25.0614 1.33879 24.9445ZM15.3532 0.266113H2.46495C1.58905 0.266113 0.963405 0.73395 0.713148 1.4357C0.588019 1.66962 0.462891 1.90354 0.462891 2.25442V24.9445C0.462891 25.1784 0.462891 25.4123 0.588019 25.7632C0.713148 25.8801 0.838277 26.1141 1.08853 26.348C1.46392 26.6989 1.96443 26.9328 2.46495 26.9328H9.09677L10.5983 25.4123H2.46495C2.33982 25.2954 2.08956 25.1784 2.08956 24.9445V2.25442C2.08956 2.0205 2.21469 1.78658 2.46495 1.78658H13.9768V7.86845C13.9768 8.45325 14.4773 8.92108 15.1029 8.92108H21.6096V13.5994L23.2363 11.8451V8.10237L22.4855 7.28366L20.1081 4.94448L16.2291 1.08483L15.3532 0.266113Z" fill="#323DA3"/>
<path id="Vector (Stroke)" fill-rule="evenodd" clip-rule="evenodd" d="M15.3852 12.9147H4.63867V11.5449H15.3852V12.9147Z" fill="#323DA3"/>
<path id="Vector (Stroke)_2" fill-rule="evenodd" clip-rule="evenodd" d="M13.978 17.1139H4.96875V15.7441H13.978V17.1139Z" fill="#323DA3"/>
<path id="Vector_4" d="M25.7099 16.9433C25.7099 16.9433 25.708 16.9433 25.706 16.9433C25.4374 16.9433 25.2158 17.0331 25.0609 17.2017C24.8923 17.3868 24.8217 17.647 24.8687 17.9183C24.8707 17.9329 24.8727 17.9476 24.8727 17.9623V18.4186C24.8727 18.5799 24.7825 18.7192 24.6354 18.7888C24.4825 18.8622 24.2923 18.8493 24.1531 18.754C24.0276 18.6697 23.9609 18.5359 23.9707 18.3911C23.9707 18.3765 23.9707 18.36 23.9746 18.3453C24.0805 17.7882 23.9648 17.3483 23.6472 17.1064C23.4099 16.9268 23.0884 16.8809 22.804 16.9872C22.6393 17.0496 22.3531 17.2163 22.2884 17.6489C22.2884 17.7368 22.2884 17.8633 22.2884 17.9934C22.2884 18.1529 22.2884 18.3178 22.2884 18.4223C22.2884 18.5836 22.2001 18.721 22.0511 18.7907C21.8982 18.864 21.708 18.8512 21.5668 18.7559C21.4393 18.6715 21.3727 18.5341 21.3864 18.3856C21.3864 18.3728 21.3864 18.36 21.3903 18.3472C21.4962 17.79 21.3805 17.3483 21.0629 17.1082C20.8256 16.9286 20.5041 16.8828 20.2197 16.9891C20.055 17.0514 19.7688 17.2182 19.7041 17.6489V18.4205C19.7041 18.5817 19.6139 18.721 19.4668 18.7907C19.3139 18.864 19.1237 18.8512 18.9845 18.7577C18.855 18.6715 18.7884 18.5323 18.8041 18.3801V13.8019C18.806 13.6828 18.7805 13.5801 18.7296 13.4903C18.6766 13.3987 18.5962 13.3236 18.4864 13.2649C18.4707 13.2576 18.455 13.2502 18.4394 13.2429C18.1433 13.1036 17.7256 13.1091 17.4433 13.2631C17.4296 13.2704 17.4198 13.2814 17.406 13.2906C17.2864 13.3657 17.206 13.461 17.1649 13.5783C17.1413 13.6461 17.1237 13.7158 17.1256 13.7964V21.8276C17.1256 21.9394 17.0531 22.0383 16.9433 22.0823C16.8335 22.1245 16.706 22.1006 16.6237 22.0218L14.1472 19.7071C13.9355 19.5018 13.7139 19.4413 13.5256 19.4413C13.4433 19.4413 13.3688 19.4523 13.3041 19.4688C12.9178 19.5641 12.5766 19.8812 12.4766 20.2422C12.4198 20.4457 12.4178 20.7462 12.7296 21.0303C12.7374 21.0376 12.7433 21.0431 12.7492 21.0505L17.2256 26.0154C17.2374 26.0301 17.2492 26.0447 17.259 26.0612C17.4296 26.3508 18.3139 26.6331 18.8511 26.6331H24.608C25.1197 26.6331 26.5472 24.9414 26.5472 24.1643V17.6324C26.5472 17.2548 26.1707 16.9488 25.708 16.9488L25.7099 16.9433Z" fill="#323DA3"/>
</g>
</svg>
