<svg width="24" height="25" viewBox="0 0 24 25" fill="none" xmlns="http://www.w3.org/2000/svg">
<g id="icon_default">
<path id="Vector" fill-rule="evenodd" clip-rule="evenodd" d="M16.0833 4.02863C16.0833 3.61441 15.7475 3.27863 15.3333 3.27863C14.9191 3.27863 14.5833 3.61441 14.5833 4.02863V4.94529H9.41669V4.02863C9.41669 3.61441 9.0809 3.27863 8.66669 3.27863C8.25247 3.27863 7.91669 3.61441 7.91669 4.02863V4.94529H6.16667C4.83198 4.94529 3.75 6.02727 3.75 7.36196V10.6953V19.0286C3.75 20.3633 4.83198 21.4453 6.16667 21.4453H17.8333C19.168 21.4453 20.25 20.3633 20.25 19.0286V10.6953V7.36196C20.25 6.02727 19.168 4.94529 17.8333 4.94529H16.0833V4.02863ZM18.75 9.94529V7.36196C18.75 6.8557 18.3396 6.44529 17.8333 6.44529H16.0833V7.36196C16.0833 7.77617 15.7475 8.11196 15.3333 8.11196C14.9191 8.11196 14.5833 7.77617 14.5833 7.36196V6.44529H9.41669V7.36196C9.41669 7.77617 9.0809 8.11196 8.66669 8.11196C8.25247 8.11196 7.91669 7.77617 7.91669 7.36196V6.44529H6.16667C5.66041 6.44529 5.25 6.8557 5.25 7.36196V9.94529H18.75ZM5.25 11.4453H18.75V19.0286C18.75 19.5349 18.3396 19.9453 17.8333 19.9453H6.16667C5.66041 19.9453 5.25 19.5349 5.25 19.0286V11.4453Z" fill="#616161"/>
</g>
</svg>
