<svg width="16" height="17" viewBox="0 0 16 17" fill="none" xmlns="http://www.w3.org/2000/svg">
<g id="icon_default">
<g id="Vector">
<path d="M3.83301 12.3218C3.83301 12.4839 3.89739 12.6393 4.012 12.754C4.1266 12.8686 4.28204 12.9329 4.44412 12.9329L12.2219 12.9329C12.384 12.9329 12.5394 12.8686 12.654 12.754C12.7686 12.6393 12.833 12.4839 12.833 12.3218V10.0996C12.833 9.82347 13.0569 9.59961 13.333 9.59961C13.6092 9.59961 13.833 9.82347 13.833 10.0996V12.3218C13.833 12.7491 13.6633 13.1589 13.3611 13.4611C13.059 13.7632 12.6492 13.9329 12.2219 13.9329L4.44412 13.9329C4.01683 13.9329 3.60703 13.7632 3.30489 13.4611C3.00275 13.1589 2.83301 12.7491 2.83301 12.3218L2.83301 10.0996C2.83301 9.82347 3.05687 9.59961 3.33301 9.59961C3.60915 9.59961 3.83301 9.82347 3.83301 10.0996L3.83301 12.3218Z" fill="#616161"/>
<path d="M11.4644 7.41272C11.6596 7.60798 11.6596 7.92457 11.4644 8.11983L8.68657 10.8976C8.49131 11.0929 8.17473 11.0929 7.97947 10.8976L5.20169 8.11983C5.00643 7.92457 5.00643 7.60798 5.20169 7.41272C5.39695 7.21746 5.71353 7.21746 5.9088 7.41272L7.83301 9.33693L7.83301 3.09961C7.83301 2.82347 8.05687 2.59961 8.33301 2.59961C8.60915 2.59961 8.83301 2.82347 8.83301 3.09961V9.33696L10.7572 7.41272C10.9525 7.21746 11.2691 7.21746 11.4644 7.41272Z" fill="#616161"/>
</g>
</g>
</svg>
