<svg width="24" height="25" viewBox="0 0 24 25" fill="none" xmlns="http://www.w3.org/2000/svg">
<path fill-rule="evenodd" clip-rule="evenodd" d="M11.9993 4.39136C7.74215 4.39136 4.29102 7.8425 4.29102 12.0997C4.29102 16.3569 7.74215 19.808 11.9993 19.808C16.2565 19.808 19.7077 16.3569 19.7077 12.0997C19.7077 7.8425 16.2565 4.39136 11.9993 4.39136ZM3.04102 12.0997C3.04102 7.15214 7.0518 3.14136 11.9993 3.14136C16.9469 3.14136 20.9577 7.15214 20.9577 12.0997C20.9577 17.0472 16.9469 21.058 11.9993 21.058C7.0518 21.058 3.04102 17.0472 3.04102 12.0997ZM14.9413 9.15773C15.1853 9.40181 15.1853 9.79753 14.9413 10.0416L12.8832 12.0997L14.9413 14.1577C15.1853 14.4018 15.1853 14.7975 14.9413 15.0416C14.6972 15.2857 14.3015 15.2857 14.0574 15.0416L11.9993 12.9836L9.94127 15.0416C9.69719 15.2857 9.30146 15.2857 9.05739 15.0416C8.81331 14.7975 8.81331 14.4018 9.05739 14.1577L11.1154 12.0997L9.05739 10.0416C8.81331 9.79753 8.81331 9.40181 9.05739 9.15773C9.30146 8.91365 9.69719 8.91365 9.94127 9.15773L11.9993 11.2158L14.0574 9.15773C14.3015 8.91365 14.6972 8.91365 14.9413 9.15773Z" fill="#C62828"/>
</svg>
