<svg width="20" height="20" viewBox="0 0 20 20" fill="none" xmlns="http://www.w3.org/2000/svg">
<path id="Vector" fill-rule="evenodd" clip-rule="evenodd" d="M1.59766 10.0239C1.59766 5.36962 5.36129 1.59961 10.0002 1.59961C14.6392 1.59961 18.4028 5.36962 18.4028 10.0239C18.4028 14.6782 14.6392 18.4482 10.0002 18.4482C5.36129 18.4482 1.59766 14.6782 1.59766 10.0239ZM10.0002 0.0996094C4.52951 0.0996094 0.0976562 4.54455 0.0976562 10.0239C0.0976562 15.5033 4.52951 19.9482 10.0002 19.9482C15.4709 19.9482 19.9028 15.5033 19.9028 10.0239C19.9028 4.54455 15.4709 0.0996094 10.0002 0.0996094ZM9.19628 5.69823C9.19628 5.14595 9.64399 4.69823 10.1963 4.69823H10.2046C10.7569 4.69823 11.2046 5.14595 11.2046 5.69823C11.2046 6.25052 10.7569 6.69823 10.2046 6.69823H10.1963C9.64399 6.69823 9.19628 6.25052 9.19628 5.69823ZM10.1963 8.79227C10.6105 8.79227 10.9463 9.12806 10.9463 9.54227V14.5423C10.9463 14.9565 10.6105 15.2923 10.1963 15.2923C9.78207 15.2923 9.44628 14.9565 9.44628 14.5423V9.54227C9.44628 9.12806 9.78207 8.79227 10.1963 8.79227Z" fill="#333333"/>
</svg>
