<svg width="24" height="25" viewBox="0 0 24 25" fill="none" xmlns="http://www.w3.org/2000/svg">
<path fill-rule="evenodd" clip-rule="evenodd" d="M12 4.58585C7.85027 4.58585 4.48624 7.94988 4.48624 12.0996C4.48624 16.2493 7.85027 19.6134 12 19.6134C16.1498 19.6134 19.5138 16.2493 19.5138 12.0996C19.5138 7.94988 16.1498 4.58585 12 4.58585ZM3 12.0996C3 7.12905 7.02944 3.09961 12 3.09961C16.9706 3.09961 21 7.12905 21 12.0996C21 17.0702 16.9706 21.0996 12 21.0996C7.02944 21.0996 3 17.0702 3 12.0996ZM12 11.3565C12.4104 11.3565 12.7431 11.6892 12.7431 12.0996V15.4024C12.7431 15.8128 12.4104 16.1455 12 16.1455C11.5896 16.1455 11.2569 15.8128 11.2569 15.4024V12.0996C11.2569 11.6892 11.5896 11.3565 12 11.3565ZM12 7.90512C11.5075 7.90512 11.1083 8.30437 11.1083 8.79687C11.1083 9.28936 11.5075 9.68861 12 9.68861H12.0082C12.5008 9.68861 12.9 9.28936 12.9 8.79687C12.9 8.30437 12.5008 7.90512 12.0082 7.90512H12Z" fill="#616161"/>
</svg>
