<svg width="25" height="25" viewBox="0 0 25 25" fill="none" xmlns="http://www.w3.org/2000/svg">
<path fill-rule="evenodd" clip-rule="evenodd" d="M21.875 12.8C21.875 17.7706 17.8456 21.8 12.875 21.8C7.90444 21.8 3.875 17.7706 3.875 12.8C3.875 7.82949 7.90444 3.80005 12.875 3.80005C17.8456 3.80005 21.875 7.82949 21.875 12.8ZM16.0522 9.62275C16.3158 9.88636 16.3158 10.3137 16.0522 10.5773L13.8295 12.8L16.0522 15.0227C16.3158 15.2863 16.3158 15.7137 16.0522 15.9773C15.7886 16.2409 15.3612 16.2409 15.0976 15.9773L12.8749 13.7546L10.6522 15.9773C10.3886 16.2409 9.96118 16.2409 9.69757 15.9773C9.43397 15.7137 9.43397 15.2863 9.69757 15.0227L11.9203 12.8L9.69757 10.5773C9.43397 10.3137 9.43397 9.88636 9.69757 9.62275C9.96118 9.35915 10.3886 9.35915 10.6522 9.62275L12.8749 11.8454L15.0976 9.62275C15.3612 9.35915 15.7886 9.35915 16.0522 9.62275Z" fill="#999999"/>
</svg>
