<svg width="25" height="25" viewBox="0 0 25 25" fill="none" xmlns="http://www.w3.org/2000/svg">
<path fill-rule="evenodd" clip-rule="evenodd" d="M5.26137 12.141C5.26137 8.57622 8.15117 5.68641 11.716 5.68641C15.2807 5.68641 18.1704 8.57622 18.1704 12.141C18.1704 13.8825 17.4808 15.4629 16.3595 16.624C16.3296 16.6467 16.3009 16.6716 16.2738 16.6988C16.2465 16.726 16.2216 16.7547 16.1989 16.7846C15.0379 17.9058 13.4575 18.5955 11.716 18.5955C8.15117 18.5955 5.26137 15.7058 5.26137 12.141ZM16.8294 18.4116C15.4356 19.5494 13.6555 20.2319 11.716 20.2319C7.24742 20.2319 3.625 16.6095 3.625 12.141C3.625 7.67247 7.24742 4.05005 11.716 4.05005C16.1844 4.05005 19.8068 7.67247 19.8068 12.141C19.8068 14.0805 19.1243 15.8607 17.9865 17.2544L21.3854 20.6534C21.7049 20.9729 21.7049 21.4909 21.3854 21.8104C21.0658 22.1299 20.5479 22.1299 20.2283 21.8104L16.8294 18.4116Z" fill="#333333"/>
</svg>
