<svg width="24" height="24" viewBox="0 0 24 24" fill="none" xmlns="http://www.w3.org/2000/svg">
<g id="icon_default">
<path id="Vector" fill-rule="evenodd" clip-rule="evenodd" d="M13.875 4.5C13.875 4.15482 14.1548 3.875 14.5 3.875H19.5C19.8452 3.875 20.125 4.15482 20.125 4.5V9.5C20.125 9.84518 19.8452 10.125 19.5 10.125C19.1548 10.125 18.875 9.84518 18.875 9.5V6.00889L14.1086 10.7753C13.8646 11.0194 13.4688 11.0194 13.2247 10.7753C12.9807 10.5312 12.9807 10.1355 13.2247 9.89139L17.9911 5.125H14.5C14.1548 5.125 13.875 4.84518 13.875 4.5ZM10.7753 13.2247C11.0194 13.4688 11.0194 13.8645 10.7753 14.1086L6.00888 18.875H9.5C9.84518 18.875 10.125 19.1548 10.125 19.5C10.125 19.8452 9.84518 20.125 9.5 20.125H4.5C4.15482 20.125 3.875 19.8452 3.875 19.5V14.5C3.875 14.1548 4.15482 13.875 4.5 13.875C4.84518 13.875 5.125 14.1548 5.125 14.5V17.9911L9.89139 13.2247C10.1355 12.9806 10.5312 12.9806 10.7753 13.2247Z" fill="white"/>
</g>
</svg>
