<svg width="24" height="24" viewBox="0 0 24 24" fill="none" xmlns="http://www.w3.org/2000/svg">
<g id="icon_default">
<path id="Vector" fill-rule="evenodd" clip-rule="evenodd" d="M7.9998 7.80005C7.9998 10 9.7998 11.8 11.9998 11.8C14.1998 11.8 15.9998 10 15.9998 7.80005C15.9998 5.60005 14.1998 3.80005 11.9998 3.80005C9.7998 3.80005 7.9998 5.60005 7.9998 7.80005ZM9.2998 7.80005C9.2998 6.30005 10.4998 5.10005 11.9998 5.10005C13.4998 5.10005 14.6998 6.30005 14.6998 7.80005C14.6998 9.30005 13.4998 10.5 11.9998 10.5C10.4998 10.5 9.2998 9.30005 9.2998 7.80005ZM18.0998 19.5C18.0998 19.8 18.3998 20.1 18.6998 20.1C18.9998 20.1 19.2998 19.8 19.4998 19.5V17.8C19.4998 15.6 17.6998 13.8 15.4998 13.8H8.7998C6.5998 13.8 4.7998 15.6 4.7998 17.8V19.5C4.7998 19.8 5.0998 20.1 5.3998 20.1C5.6998 20.1 5.9998 19.8 5.9998 19.5V17.8C5.9998 16.3 7.1998 15.1 8.6998 15.1H15.3998C16.8998 15.1 18.0998 16.3 18.0998 17.8V19.5Z" fill="#999999"/>
</g>
</svg>
