<svg width="36" height="36" viewBox="0 0 36 36" fill="none" xmlns="http://www.w3.org/2000/svg">
<g filter="url(#filter0_dd_2228_107435)">
<path d="M3.825 18C3.825 25.8286 10.1714 32.175 18 32.175C25.8286 32.175 32.175 25.8286 32.175 18C32.175 10.1714 25.8286 3.825 18 3.825C10.1714 3.825 3.825 10.1714 3.825 18Z" fill="#333333"/>
<path d="M3.825 18C3.825 25.8286 10.1714 32.175 18 32.175C25.8286 32.175 32.175 25.8286 32.175 18C32.175 10.1714 25.8286 3.825 18 3.825C10.1714 3.825 3.825 10.1714 3.825 18Z" stroke="white" stroke-width="1.35"/>
<path fill-rule="evenodd" clip-rule="evenodd" d="M19.3588 10.7888C18.9099 10.789 18.461 10.7892 18.0121 10.7892C17.5457 10.7892 17.0792 10.7889 16.6128 10.7885C15.5465 10.7877 14.4801 10.787 13.414 10.7903C12.1104 10.7945 11.1808 11.6742 11.1342 12.9863C11.1103 13.672 11.1159 14.3588 11.1216 15.0455C11.1237 15.3022 11.1258 15.5589 11.1264 15.8155C11.1269 16.0125 11.198 16.0535 11.3873 16.0242C11.747 15.9694 12.1078 15.9177 12.4697 15.8842C12.6103 15.8709 12.6814 15.8272 12.7107 15.6845C12.8529 14.997 13.3209 14.6104 14.0127 14.6073C14.6908 14.6041 15.3695 14.6046 16.0477 14.6073C16.7405 14.6099 17.2095 14.9901 17.358 15.6776C17.3883 15.8198 17.4458 15.8847 17.5912 15.8815C17.8652 15.8751 18.1392 15.8741 18.4131 15.8815C18.5606 15.8853 18.6192 15.8166 18.65 15.6786C18.8058 14.9784 19.266 14.6078 19.9765 14.6062C20.6354 14.6046 21.2942 14.6051 21.953 14.6062C22.6803 14.6073 23.1295 14.9662 23.2942 15.6845C23.3261 15.8251 23.394 15.8725 23.5357 15.8837C23.8793 15.9113 24.2223 15.9497 24.5616 16.0083C24.8262 16.0541 24.88 16.0274 24.88 15.7537C24.8803 15.539 24.881 15.3242 24.8816 15.1094C24.8838 14.4342 24.8859 13.7588 24.8748 13.0838C24.8706 12.8218 24.833 12.5502 24.7535 12.3021C24.4529 11.3617 23.6293 10.793 22.5909 10.7903C21.5135 10.7877 20.4362 10.7882 19.3588 10.7888ZM17.9904 23.9405H17.9914H25.0926C25.3864 23.9405 25.491 24.0497 25.4988 24.3468C25.4996 24.3776 25.4999 24.4086 25.5001 24.4397C25.5009 24.549 25.5016 24.6592 25.5281 24.7616C25.6039 25.0534 25.9056 25.2462 26.1885 25.2073C26.5242 25.161 26.7459 24.9006 26.7469 24.5262C26.7477 24.1675 26.7491 23.8088 26.7506 23.4501C26.7551 22.3411 26.7596 21.2319 26.7438 20.123C26.7176 18.2917 25.3425 16.9333 23.5469 16.9333C19.8429 16.9322 16.1384 16.9322 12.4343 16.9354C12.2268 16.9354 12.0155 16.9498 11.8121 16.9903C10.2733 17.2959 9.25475 18.5665 9.24795 20.1922C9.24384 21.2123 9.24507 22.2321 9.24629 23.2521C9.24679 23.6601 9.24728 24.0681 9.24743 24.4762C9.24743 24.5491 9.24952 24.6232 9.26102 24.6945C9.31854 25.0422 9.66834 25.2744 10.0056 25.1919C10.3282 25.1131 10.4913 24.874 10.495 24.4757C10.4992 23.9948 10.553 23.9405 11.0262 23.9405H17.9904Z" fill="white"/>
</g>
<defs>
<filter id="filter0_dd_2228_107435" x="-2" y="-1" width="40" height="40" filterUnits="userSpaceOnUse" color-interpolation-filters="sRGB">
<feFlood flood-opacity="0" result="BackgroundImageFix"/>
<feColorMatrix in="SourceAlpha" type="matrix" values="0 0 0 0 0 0 0 0 0 0 0 0 0 0 0 0 0 0 127 0" result="hardAlpha"/>
<feOffset/>
<feGaussianBlur stdDeviation="0.5"/>
<feComposite in2="hardAlpha" operator="out"/>
<feColorMatrix type="matrix" values="0 0 0 0 0 0 0 0 0 0 0 0 0 0 0 0 0 0 0.2 0"/>
<feBlend mode="normal" in2="BackgroundImageFix" result="effect1_dropShadow_2228_107435"/>
<feColorMatrix in="SourceAlpha" type="matrix" values="0 0 0 0 0 0 0 0 0 0 0 0 0 0 0 0 0 0 127 0" result="hardAlpha"/>
<feOffset dy="1"/>
<feGaussianBlur stdDeviation="1"/>
<feComposite in2="hardAlpha" operator="out"/>
<feColorMatrix type="matrix" values="0 0 0 0 0 0 0 0 0 0 0 0 0 0 0 0 0 0 0.12 0"/>
<feBlend mode="normal" in2="effect1_dropShadow_2228_107435" result="effect2_dropShadow_2228_107435"/>
<feBlend mode="normal" in="SourceGraphic" in2="effect2_dropShadow_2228_107435" result="shape"/>
</filter>
</defs>
</svg>
