<svg width="40" height="43" viewBox="0 0 40 43" fill="none" xmlns="http://www.w3.org/2000/svg">
<g filter="url(#filter0_dd_2228_107437)">
<mask id="path-1-outside-1_2228_107437" maskUnits="userSpaceOnUse" x="3.97388" y="0.333374" width="32" height="40" fill="black">
<rect fill="white" x="3.97388" y="0.333374" width="32" height="40"/>
<path fill-rule="evenodd" clip-rule="evenodd" d="M19.9644 3.33337H20.0949C27.2248 3.44517 33.0201 9.29395 33.0261 16.3607C33.0261 20.2972 31.1516 24.6161 27.4621 29.2116C27.2545 29.4764 27.0409 29.7353 26.8215 29.9942C26.8126 30.003 26.8052 30.0118 26.7977 30.0206C26.7903 30.0295 26.7829 30.0383 26.774 30.0471C26.3707 30.5237 25.9436 31.0062 25.5046 31.4828C25.3148 31.6946 25.1191 31.9005 24.9234 32.1064L24.9233 32.1065C24.9025 32.1271 24.8818 32.1492 24.861 32.1713C24.8403 32.1933 24.8195 32.2154 24.7987 32.236C22.8769 34.2366 21.0795 35.7841 20 36.6667C18.9263 35.79 17.1468 34.2542 15.2427 32.2713C15.1834 32.2125 15.13 32.1595 15.0766 32.1007C14.8928 31.9124 14.7148 31.7182 14.5369 31.5241L14.5368 31.524C14.0801 31.0298 13.6411 30.5296 13.2259 30.0412C13.22 30.0353 13.2155 30.0295 13.2111 30.0236C13.2066 30.0177 13.2022 30.0118 13.1963 30.0059C12.9768 29.747 12.7633 29.4881 12.5556 29.2292C8.85424 24.6279 6.97388 20.3031 6.97388 16.3607C6.97388 9.29395 12.7751 3.44517 19.9051 3.33337H19.9644Z"/>
</mask>
<path fill-rule="evenodd" clip-rule="evenodd" d="M19.9644 3.33337H20.0949C27.2248 3.44517 33.0201 9.29395 33.0261 16.3607C33.0261 20.2972 31.1516 24.6161 27.4621 29.2116C27.2545 29.4764 27.0409 29.7353 26.8215 29.9942C26.8126 30.003 26.8052 30.0118 26.7977 30.0206C26.7903 30.0295 26.7829 30.0383 26.774 30.0471C26.3707 30.5237 25.9436 31.0062 25.5046 31.4828C25.3148 31.6946 25.1191 31.9005 24.9234 32.1064L24.9233 32.1065C24.9025 32.1271 24.8818 32.1492 24.861 32.1713C24.8403 32.1933 24.8195 32.2154 24.7987 32.236C22.8769 34.2366 21.0795 35.7841 20 36.6667C18.9263 35.79 17.1468 34.2542 15.2427 32.2713C15.1834 32.2125 15.13 32.1595 15.0766 32.1007C14.8928 31.9124 14.7148 31.7182 14.5369 31.5241L14.5368 31.524C14.0801 31.0298 13.6411 30.5296 13.2259 30.0412C13.22 30.0353 13.2155 30.0295 13.2111 30.0236C13.2066 30.0177 13.2022 30.0118 13.1963 30.0059C12.9768 29.747 12.7633 29.4881 12.5556 29.2292C8.85424 24.6279 6.97388 20.3031 6.97388 16.3607C6.97388 9.29395 12.7751 3.44517 19.9051 3.33337H19.9644Z" fill="#323DA3"/>
<path d="M20.0949 3.33337L20.1275 1.24993L20.1112 1.24967H20.0949V3.33337ZM33.0261 16.3607L35.1098 16.3607L35.1098 16.359L33.0261 16.3607ZM27.4621 29.2116L25.8373 27.9071L25.8298 27.9164L25.8223 27.9259L27.4621 29.2116ZM26.8215 29.9942L28.2888 31.4736L28.3527 31.4102L28.4109 31.3416L26.8215 29.9942ZM26.7977 30.0206L28.393 31.3611L28.3933 31.3607L26.7977 30.0206ZM26.774 30.0471L25.3065 28.5679L25.2421 28.6318L25.1835 28.701L26.774 30.0471ZM25.5046 31.4828L23.9719 30.0712L23.9623 30.0817L23.9528 30.0923L25.5046 31.4828ZM24.9234 32.1064L23.4131 30.6709L23.4061 30.6783L24.9234 32.1064ZM24.9233 32.1065L26.3907 33.5859L26.4161 33.5607L26.4407 33.5346L24.9233 32.1065ZM24.861 32.1713L23.3434 30.7434L23.3434 30.7434L24.861 32.1713ZM24.7987 32.236L23.3313 30.7567L23.3135 30.7744L23.2961 30.7924L24.7987 32.236ZM20 36.6667L18.682 38.2807L20.0007 39.3575L21.3188 38.2799L20 36.6667ZM15.2427 32.2713L16.7457 30.8281L16.7281 30.8098L16.7101 30.7919L15.2427 32.2713ZM15.0766 32.1007L16.6198 30.7006L16.5941 30.6722L16.5674 30.6448L15.0766 32.1007ZM14.5369 31.5241L16.0731 30.1162L16.0588 30.1006L16.0442 30.0853L14.5369 31.5241ZM14.5368 31.524L13.0065 32.9382L13.0179 32.9506L13.0296 32.9628L14.5368 31.524ZM13.2259 30.0412L14.8134 28.6915L14.7561 28.6241L14.6933 28.5618L13.2259 30.0412ZM13.2111 30.0236L11.5489 31.2802L11.549 31.2802L13.2111 30.0236ZM13.1963 30.0059L11.6068 31.3533L11.665 31.4219L11.7288 31.4852L13.1963 30.0059ZM12.5556 29.2292L14.1812 27.9257L14.1792 27.9232L12.5556 29.2292ZM19.9051 3.33337V1.24967H19.8887L19.8724 1.24993L19.9051 3.33337ZM20.0949 1.24967H19.9644V5.41707H20.0949V1.24967ZM35.1098 16.359C35.1029 8.14144 28.3813 1.37935 20.1275 1.24993L20.0622 5.41682C26.0684 5.51099 30.9374 10.4465 30.9424 16.3625L35.1098 16.359ZM29.0869 30.5161C32.9304 25.7289 35.1098 20.9584 35.1098 16.3607H30.9424C30.9424 19.6359 29.3729 23.5033 25.8373 27.9071L29.0869 30.5161ZM28.4109 31.3416C28.6421 31.0689 28.8734 30.7887 29.1019 30.4973L25.8223 27.9259C25.6356 28.164 25.4398 28.4016 25.232 28.6468L28.4109 31.3416ZM28.3933 31.3607C28.3995 31.3534 28.3872 31.3682 28.3718 31.3857C28.3539 31.4059 28.3256 31.4371 28.2888 31.4736L25.3541 28.5147C25.2682 28.6 25.2032 28.6793 25.2022 28.6805L28.3933 31.3607ZM28.2415 31.5264C28.3272 31.4414 28.3921 31.3622 28.393 31.3611L25.2025 28.6801C25.1962 28.6876 25.2085 28.6729 25.2238 28.6555C25.2416 28.6353 25.2698 28.6043 25.3065 28.5679L28.2415 31.5264ZM27.0373 32.8944C27.4945 32.3981 27.9409 31.8938 28.3646 31.3932L25.1835 28.701C24.8004 29.1537 24.3927 29.6143 23.9719 30.0712L27.0373 32.8944ZM26.4337 33.542C26.6259 33.3398 26.8428 33.1118 27.0565 32.8734L23.9528 30.0923C23.7868 30.2775 23.6123 30.4613 23.4131 30.6709L26.4337 33.542ZM26.4407 33.5346L26.4408 33.5345L23.4061 30.6783L23.406 30.6784L26.4407 33.5346ZM26.3786 33.5991C26.384 33.5934 26.3877 33.5894 26.3912 33.5858C26.3944 33.5823 26.3964 33.5802 26.3977 33.5789C26.4004 33.5761 26.3974 33.5793 26.3907 33.5859L23.4559 30.6272C23.4052 30.6775 23.3595 30.7263 23.3434 30.7434L26.3786 33.5991ZM26.2662 33.7153C26.3169 33.665 26.3625 33.6162 26.3786 33.5991L23.3434 30.7434C23.338 30.7492 23.3343 30.7531 23.3309 30.7568C23.3276 30.7602 23.3256 30.7623 23.3244 30.7636C23.3216 30.7665 23.3246 30.7633 23.3313 30.7567L26.2662 33.7153ZM21.3188 38.2799C22.4419 37.3617 24.3055 35.7572 26.3014 33.6795L23.2961 30.7924C21.4482 32.716 19.7172 34.2065 18.6811 35.0535L21.3188 38.2799ZM13.7397 33.7145C15.717 35.7737 17.5626 37.3665 18.682 38.2807L21.3179 35.0528C20.2901 34.2134 18.5766 32.7348 16.7457 30.8281L13.7397 33.7145ZM13.5334 33.5008C13.6296 33.6068 13.7219 33.6977 13.7753 33.7506L16.7101 30.7919C16.6449 30.7272 16.6304 30.7122 16.6198 30.7006L13.5334 33.5008ZM13.0007 32.9319C13.1749 33.122 13.3751 33.3406 13.5859 33.5565L16.5674 30.6448C16.4105 30.4841 16.2547 30.3145 16.0731 30.1162L13.0007 32.9319ZM13.0296 32.9628L13.0296 32.9628L16.0442 30.0853L16.0441 30.0853L13.0296 32.9628ZM11.6384 31.3909C12.068 31.8962 12.5263 32.4185 13.0065 32.9382L16.0672 30.1098C15.6339 29.641 15.2143 29.1631 14.8134 28.6915L11.6384 31.3909ZM11.549 31.2802C11.5491 31.2804 11.5564 31.2901 11.5649 31.3011C11.5742 31.3132 11.5884 31.3313 11.606 31.3528C11.6422 31.397 11.6931 31.4557 11.7585 31.5206L14.6933 28.5618C14.8067 28.6743 14.8843 28.7816 14.8732 28.7669L11.549 31.2802ZM11.7288 31.4852C11.6155 31.3729 11.5381 31.2658 11.5489 31.2802L14.8733 28.767C14.8731 28.7668 14.8658 28.757 14.8572 28.746C14.8479 28.7339 14.8338 28.7158 14.8161 28.6943C14.78 28.6501 14.7291 28.5914 14.6638 28.5266L11.7288 31.4852ZM10.9301 30.5328C11.1498 30.8068 11.3754 31.0803 11.6068 31.3533L14.7857 28.6585C14.5782 28.4137 14.3767 28.1695 14.1812 27.9257L10.9301 30.5328ZM4.89018 16.3607C4.89018 20.9655 7.07654 25.7423 10.932 30.5353L14.1792 27.9232C10.6319 23.5134 9.05758 19.6406 9.05758 16.3607H4.89018ZM19.8724 1.24993C11.6202 1.37932 4.89018 8.14026 4.89018 16.3607H9.05758C9.05758 10.4476 13.93 5.51102 19.9377 5.41682L19.8724 1.24993ZM19.9644 1.24967H19.9051V5.41707H19.9644V1.24967Z" fill="white" mask="url(#path-1-outside-1_2228_107437)"/>
</g>
<defs>
<filter id="filter0_dd_2228_107437" x="-2" y="-1" width="44" height="44" filterUnits="userSpaceOnUse" color-interpolation-filters="sRGB">
<feFlood flood-opacity="0" result="BackgroundImageFix"/>
<feColorMatrix in="SourceAlpha" type="matrix" values="0 0 0 0 0 0 0 0 0 0 0 0 0 0 0 0 0 0 127 0" result="hardAlpha"/>
<feOffset/>
<feGaussianBlur stdDeviation="0.5"/>
<feComposite in2="hardAlpha" operator="out"/>
<feColorMatrix type="matrix" values="0 0 0 0 0 0 0 0 0 0 0 0 0 0 0 0 0 0 0.2 0"/>
<feBlend mode="normal" in2="BackgroundImageFix" result="effect1_dropShadow_2228_107437"/>
<feColorMatrix in="SourceAlpha" type="matrix" values="0 0 0 0 0 0 0 0 0 0 0 0 0 0 0 0 0 0 127 0" result="hardAlpha"/>
<feOffset dy="1"/>
<feGaussianBlur stdDeviation="1"/>
<feComposite in2="hardAlpha" operator="out"/>
<feColorMatrix type="matrix" values="0 0 0 0 0 0 0 0 0 0 0 0 0 0 0 0 0 0 0.12 0"/>
<feBlend mode="normal" in2="effect1_dropShadow_2228_107437" result="effect2_dropShadow_2228_107437"/>
<feBlend mode="normal" in="SourceGraphic" in2="effect2_dropShadow_2228_107437" result="shape"/>
</filter>
</defs>
</svg>
