<svg width="16" height="16" viewBox="0 0 16 16" fill="none" xmlns="http://www.w3.org/2000/svg">
<path fill-rule="evenodd" clip-rule="evenodd" d="M3.47635 1.33331C2.90803 1.33331 2.36299 1.55908 1.96112 1.96094C1.55926 2.36281 1.3335 2.90785 1.3335 3.47617V10.619C1.3335 10.8085 1.40875 10.9901 1.54271 11.1241C1.67666 11.2581 1.85834 11.3333 2.04778 11.3333C2.23722 11.3333 2.4189 11.2581 2.55286 11.1241C2.68681 10.9901 2.76207 10.8085 2.76207 10.619V3.47617C2.76207 3.28673 2.83732 3.10505 2.97128 2.97109C3.10523 2.83714 3.28691 2.76188 3.47635 2.76188H10.6192C10.8087 2.76188 10.9903 2.68663 11.1243 2.55268C11.2582 2.41872 11.3335 2.23704 11.3335 2.0476C11.3335 1.85816 11.2582 1.67648 11.1243 1.54252C10.9903 1.40857 10.8087 1.33331 10.6192 1.33331H3.47635ZM5.61921 4.19046C5.24033 4.19046 4.87697 4.34097 4.60906 4.60888C4.34115 4.87678 4.19064 5.24015 4.19064 5.61903V13.2381C4.19064 13.617 4.34115 13.9803 4.60906 14.2482C4.87697 14.5161 5.24033 14.6666 5.61921 14.6666H13.2383C13.6171 14.6666 13.9805 14.5161 14.2484 14.2482C14.5163 13.9803 14.6668 13.617 14.6668 13.2381V5.61903C14.6668 5.24015 14.5163 4.87678 14.2484 4.60888C13.9805 4.34097 13.6171 4.19046 13.2383 4.19046H5.61921Z" fill="#323DA3"/>
</svg>
