<svg width="38" height="38" viewBox="0 0 38 38" fill="none" xmlns="http://www.w3.org/2000/svg">
<g id="icon_default">
<path id="vector" fill-rule="evenodd" clip-rule="evenodd" d="M20.8372 9.67059C20.8372 9.0311 20.3188 8.5127 19.6793 8.5127C19.0398 8.5127 18.5214 9.0311 18.5214 9.67059V18.2184H9.97357C9.33408 18.2184 8.81567 18.7368 8.81567 19.3763C8.81567 20.0157 9.33408 20.5341 9.97357 20.5341H18.5214V29.0821C18.5214 29.7215 19.0398 30.24 19.6793 30.24C20.3188 30.24 20.8372 29.7215 20.8372 29.0821V20.5341H29.385C30.0245 20.5341 30.5429 20.0157 30.5429 19.3763C30.5429 18.7368 30.0245 18.2184 29.385 18.2184H20.8372V9.67059Z" fill="#999999"/>
</g>
</svg>
