<svg width="149" height="120" viewBox="0 0 149 120" fill="none" xmlns="http://www.w3.org/2000/svg">
<path d="M59.6685 120C92.6225 120 119.337 93.1371 119.337 60C119.337 26.8629 92.6225 0 59.6685 0C26.7145 0 0 26.8629 0 60C0 93.1371 26.7145 120 59.6685 120Z" fill="#EEEEEE"/>
<g filter="url(#filter0_d_1944_5948)">
<path d="M32.619 27.2H140.022C141.077 27.2 142.089 27.6214 142.835 28.3716C143.581 29.1217 144 30.1391 144 31.2V51.2C144 52.2609 143.581 53.2783 142.835 54.0284C142.089 54.7786 141.077 55.2 140.022 55.2H32.619C31.564 55.2 30.5522 54.7786 29.8062 54.0284C29.0602 53.2783 28.6411 52.2609 28.6411 51.2V31.2C28.6411 30.1391 29.0602 29.1217 29.8062 28.3716C30.5522 27.6214 31.564 27.2 32.619 27.2V27.2Z" fill="white"/>
</g>
<path d="M83.5362 33.6H62.8511C61.5329 33.6 60.4644 34.6745 60.4644 36C60.4644 37.3255 61.5329 38.4 62.8511 38.4H83.5362C84.8543 38.4 85.9229 37.3255 85.9229 36C85.9229 34.6745 84.8543 33.6 83.5362 33.6Z" fill="#EEEEEE"/>
<path d="M97.8566 44H62.8511C61.5329 44 60.4644 45.0745 60.4644 46.4C60.4644 47.7255 61.5329 48.8 62.8511 48.8H97.8566C99.1748 48.8 100.243 47.7255 100.243 46.4C100.243 45.0745 99.1748 44 97.8566 44Z" fill="#EEEEEE"/>
<path d="M54.0997 41.2C54.0997 34.7935 48.9349 29.6 42.5637 29.6C36.1926 29.6 31.0278 34.7935 31.0278 41.2C31.0278 47.6065 36.1926 52.8 42.5637 52.8C48.9349 52.8 54.0997 47.6065 54.0997 41.2Z" fill="#323DA3"/>
<path fill-rule="evenodd" clip-rule="evenodd" d="M49.5306 35.9697C49.8235 36.2626 49.8235 36.7374 49.5306 37.0303L41.2806 45.2803C40.9877 45.5732 40.5128 45.5732 40.2199 45.2803L36.4699 41.5303C36.177 41.2374 36.177 40.7626 36.4699 40.4697C36.7628 40.1768 37.2377 40.1768 37.5306 40.4697L40.7502 43.6893L48.4699 35.9697C48.7628 35.6768 49.2377 35.6768 49.5306 35.9697Z" fill="white"/>
<g filter="url(#filter1_d_1944_5948)">
<path d="M128.088 63.2H20.6852C18.4882 63.2 16.7073 64.9909 16.7073 67.2V87.2C16.7073 89.4092 18.4882 91.2 20.6852 91.2H128.088C130.285 91.2 132.066 89.4092 132.066 87.2V67.2C132.066 64.9909 130.285 63.2 128.088 63.2Z" fill="white"/>
</g>
<path d="M71.6023 69.6H50.9173C49.5991 69.6 48.5305 70.6745 48.5305 72C48.5305 73.3255 49.5991 74.4 50.9173 74.4H71.6023C72.9205 74.4 73.9891 73.3255 73.9891 72C73.9891 70.6745 72.9205 69.6 71.6023 69.6Z" fill="#EEEEEE"/>
<path d="M85.9228 80H50.9173C49.5991 80 48.5305 81.0745 48.5305 82.4C48.5305 83.7255 49.5991 84.8 50.9173 84.8H85.9228C87.2409 84.8 88.3095 83.7255 88.3095 82.4C88.3095 81.0745 87.2409 80 85.9228 80Z" fill="#EEEEEE"/>
<path d="M42.1658 77.2C42.1658 70.7935 37.001 65.6 30.6299 65.6C24.2588 65.6 19.094 70.7935 19.094 77.2C19.094 83.6065 24.2588 88.8 30.6299 88.8C37.001 88.8 42.1658 83.6065 42.1658 77.2Z" fill="#323DA3"/>
<path fill-rule="evenodd" clip-rule="evenodd" d="M37.5303 71.9697C37.8232 72.2626 37.8232 72.7374 37.5303 73.0303L29.2803 81.2803C28.9874 81.5732 28.5126 81.5732 28.2197 81.2803L24.4697 77.5303C24.1768 77.2374 24.1768 76.7626 24.4697 76.4697C24.7626 76.1768 25.2374 76.1768 25.5303 76.4697L28.75 79.6893L36.4697 71.9697C36.7626 71.6768 37.2374 71.6768 37.5303 71.9697Z" fill="white"/>
<defs>
<filter id="filter0_d_1944_5948" x="23.8411" y="24.8" width="124.959" height="37.6" filterUnits="userSpaceOnUse" color-interpolation-filters="sRGB">
<feFlood flood-opacity="0" result="BackgroundImageFix"/>
<feColorMatrix in="SourceAlpha" type="matrix" values="0 0 0 0 0 0 0 0 0 0 0 0 0 0 0 0 0 0 127 0" result="hardAlpha"/>
<feOffset dy="2.4"/>
<feGaussianBlur stdDeviation="2.4"/>
<feColorMatrix type="matrix" values="0 0 0 0 0 0 0 0 0 0 0 0 0 0 0 0 0 0 0.161 0"/>
<feBlend mode="normal" in2="BackgroundImageFix" result="effect1_dropShadow_1944_5948"/>
<feBlend mode="normal" in="SourceGraphic" in2="effect1_dropShadow_1944_5948" result="shape"/>
</filter>
<filter id="filter1_d_1944_5948" x="11.9073" y="60.8" width="124.959" height="37.6" filterUnits="userSpaceOnUse" color-interpolation-filters="sRGB">
<feFlood flood-opacity="0" result="BackgroundImageFix"/>
<feColorMatrix in="SourceAlpha" type="matrix" values="0 0 0 0 0 0 0 0 0 0 0 0 0 0 0 0 0 0 127 0" result="hardAlpha"/>
<feOffset dy="2.4"/>
<feGaussianBlur stdDeviation="2.4"/>
<feColorMatrix type="matrix" values="0 0 0 0 0 0 0 0 0 0 0 0 0 0 0 0 0 0 0.161 0"/>
<feBlend mode="normal" in2="BackgroundImageFix" result="effect1_dropShadow_1944_5948"/>
<feBlend mode="normal" in="SourceGraphic" in2="effect1_dropShadow_1944_5948" result="shape"/>
</filter>
</defs>
</svg>
