<svg width="24" height="24" viewBox="0 0 24 24" fill="none" xmlns="http://www.w3.org/2000/svg">
<g id="icon_default">
<path id="Vector" fill-rule="evenodd" clip-rule="evenodd" d="M12 3.65138C7.38918 3.65138 3.65138 7.38918 3.65138 12C3.65138 16.6108 7.38918 20.3486 12 20.3486C16.6108 20.3486 20.3486 16.6108 20.3486 12C20.3486 7.38918 16.6108 3.65138 12 3.65138ZM2 12C2 6.47715 6.47715 2 12 2C17.5228 2 22 6.47715 22 12C22 17.5228 17.5228 22 12 22C6.47715 22 2 17.5228 2 12ZM15.3361 8.66384C15.6586 8.98629 15.6586 9.50908 15.3361 9.83153L13.1677 12L15.3361 14.1684C15.6586 14.4909 15.6586 15.0137 15.3361 15.3361C15.0137 15.6586 14.4909 15.6586 14.1684 15.3361L12 13.1677L9.83153 15.3361C9.50908 15.6586 8.98629 15.6586 8.66384 15.3361C8.34138 15.0137 8.34138 14.4909 8.66384 14.1684L10.8323 12L8.66384 9.83153C8.34138 9.50908 8.34138 8.98629 8.66384 8.66384C8.98629 8.34138 9.50908 8.34138 9.83153 8.66384L12 10.8323L14.1684 8.66384C14.4909 8.34138 15.0137 8.34138 15.3361 8.66384Z" fill="#C62828"/>
</g>
</svg>
