<svg width="24" height="24" viewBox="0 0 24 24" fill="none" xmlns="http://www.w3.org/2000/svg">
<path d="M17.4796 13.6268C17.3127 13.4593 17.1144 13.3265 16.8961 13.2358C16.6778 13.1452 16.4438 13.0985 16.2074 13.0985C15.971 13.0985 15.7369 13.1452 15.5186 13.2358C15.3003 13.3265 15.1021 13.4593 14.9352 13.6268L14.0671 14.4948C13.0897 13.8745 12.1842 13.1477 11.3671 12.3276C10.547 11.5105 9.82018 10.605 9.19987 9.62759L10.0679 8.75951C10.2354 8.59265 10.3682 8.39439 10.4589 8.17607C10.5495 7.95776 10.5962 7.72371 10.5962 7.48732C10.5962 7.25094 10.5495 7.01688 10.4589 6.79857C10.3682 6.58026 10.2354 6.38199 10.0679 6.21513L8.37369 4.52686C8.20919 4.35887 8.0126 4.22566 7.79559 4.13516C7.57859 4.04466 7.3456 3.9987 7.11048 4.00003C6.8737 3.99945 6.63913 4.0457 6.42028 4.13611C6.20144 4.22653 6.00263 4.35932 5.8353 4.52686L5.0211 5.33508C4.63302 5.75234 4.34338 6.25126 4.17347 6.79518C4.00356 7.33909 3.9577 7.91417 4.03927 8.47813C4.23085 10.7232 5.70359 13.4232 7.97258 15.6982C10.2416 17.9732 12.9715 19.4399 15.2166 19.6554C15.3841 19.6644 15.552 19.6644 15.7195 19.6554C16.2027 19.6757 16.6852 19.5993 17.1385 19.4307C17.5919 19.2621 18.007 19.0047 18.3596 18.6736L19.1678 17.8594C19.3354 17.6921 19.4682 17.4933 19.5586 17.2744C19.649 17.0556 19.6953 16.821 19.6947 16.5842C19.696 16.3491 19.6501 16.1161 19.5595 15.8991C19.469 15.6821 19.3358 15.4855 19.1678 15.321L17.4796 13.6268Z" fill="#323DA3"/>
</svg>
