<svg width="88" height="24" viewBox="0 0 88 24" fill="none" xmlns="http://www.w3.org/2000/svg">
<g id="Frame" clip-path="url(#clip0_1817_5975)">
<path id="Vector" d="M47.6129 4.09486C47.6129 3.30896 46.9834 2.67012 46.209 2.66553H46.2C45.4256 2.66553 44.7961 3.30436 44.7961 4.09486V20.4472C44.7961 20.4472 44.8007 20.484 44.8052 20.507C44.846 21.2607 45.4528 21.8582 46.2045 21.8582C46.9562 21.8582 47.6129 21.2193 47.6129 20.4288C47.6129 20.4288 47.6129 20.4288 47.6129 20.4242V4.10406C47.6129 4.10406 47.6129 4.10406 47.6129 4.09946V4.09486Z" fill="white"/>
<path id="Vector_2" d="M67.3753 16.0261C67.3753 16.0261 67.3617 16.0261 67.3527 16.0261H61.1079V14.1647H65.2877C65.3647 14.1647 65.4326 14.1555 65.496 14.1418C66.0394 14.0544 66.4515 13.5856 66.4515 13.0112C66.4515 12.3769 65.9443 11.8622 65.3149 11.8622C65.2922 11.8622 65.2741 11.8668 65.2515 11.8714H56.4978C56.3891 11.8714 56.3076 11.8484 56.2533 11.7978C56.1989 11.7473 56.1718 11.6508 56.1718 11.4991V10.1755H60.0889L64.3729 10.1709C64.862 10.1709 65.2243 10.033 65.4643 9.75723C65.6998 9.48147 65.8221 9.10001 65.8221 8.61744V4.78442C65.8175 4.48109 65.7315 4.25129 65.5684 4.09963C65.4281 3.96635 65.2333 3.9066 65.0024 3.88362C64.9571 3.88362 64.9163 3.86523 64.8665 3.86523H54.5732C54.5732 3.86523 54.5687 3.86523 54.5642 3.86523C53.9347 3.86523 53.4275 4.37998 53.4275 5.01422C53.4275 5.64846 53.9392 6.1632 54.5642 6.1632H54.5687H61.692H63.1095V7.87749H54.9129C54.9129 7.87749 54.9038 7.87749 54.8993 7.87749C54.7091 7.87749 54.5415 7.90507 54.3921 7.95102C54.1611 8.01996 53.9664 8.12567 53.826 8.29112C53.586 8.56688 53.4683 8.94834 53.4683 9.43092V11.7105C53.4683 11.7105 53.4683 11.7381 53.4683 11.7519V12.6159C53.4683 13.0985 53.586 13.4799 53.826 13.7557C53.9664 13.9212 54.1611 14.0315 54.3921 14.0958C54.546 14.1418 54.7181 14.1693 54.9174 14.1693H55.8955C55.8955 14.1693 55.9318 14.1739 55.9544 14.1739H58.3002V16.0353H52.2818C52.2818 16.0353 52.2682 16.0353 52.2591 16.0353C51.598 16.0353 51.0591 16.5776 51.0591 17.2486C51.0591 17.9196 51.598 18.4619 52.2591 18.4619H67.3753C67.4478 18.4619 67.5067 18.4527 67.5655 18.439C68.1406 18.3516 68.5799 17.8553 68.5799 17.244C68.5799 16.573 68.041 16.0307 67.3799 16.0307L67.3753 16.0261Z" fill="white"/>
<path id="Vector_3" d="M86.3815 11.9724C86.3815 11.9724 86.3634 11.9724 86.3543 11.9724C86.3543 11.9724 86.3498 11.9724 86.3453 11.9724H71.134C71.134 11.9724 71.1249 11.9724 71.1159 11.9724C70.5 11.9724 69.9973 12.478 69.9973 13.103C69.9973 13.7281 70.5 14.2336 71.1159 14.2336H77.2701V15.5113H73.8964C73.4707 15.5113 73.1446 15.6216 72.9091 15.8284C72.8729 15.8606 72.8322 15.8882 72.8005 15.9249C72.5876 16.1731 72.4744 16.5086 72.4518 16.9222C72.4518 16.9682 72.4427 17.0142 72.4427 17.0647V20.3094C72.4427 20.792 72.5604 21.1735 72.8005 21.4492C72.8322 21.486 72.8729 21.5136 72.9091 21.5458C73.1446 21.7526 73.4707 21.8629 73.8964 21.8629H83.4561C83.8817 21.8629 84.2033 21.7526 84.4388 21.5458C84.475 21.5136 84.5157 21.486 84.5474 21.4492C84.7739 21.1873 84.8871 20.8334 84.9007 20.3876C84.9007 20.36 84.9052 20.337 84.9052 20.3094V20.2911L84.9007 17.0647C84.9007 16.5821 84.7829 16.2007 84.5429 15.9249C84.3074 15.6492 83.9406 15.5113 83.4515 15.5113H80.0914V14.2336H86.3498C86.3498 14.2336 86.3634 14.2336 86.3679 14.2336C86.3724 14.2336 86.377 14.2336 86.386 14.2336C87.0019 14.2336 87.5046 13.7281 87.5046 13.103C87.5046 12.478 87.0019 11.9724 86.386 11.9724H86.3815ZM82.1473 17.7679V19.6063H75.5357C75.427 19.6063 75.3455 19.5833 75.2911 19.5465C75.2368 19.5052 75.2096 19.4086 75.2096 19.257V17.7725H82.1473V17.7679Z" fill="white"/>
<path id="Vector_4" d="M37.5821 4.1731C34.5888 4.1731 32.166 6.63192 32.166 9.66984C32.166 12.7078 34.5888 15.1666 37.5821 15.1666C40.5755 15.1666 42.9982 12.7032 42.9982 9.66984C42.9982 6.63652 40.5709 4.1731 37.5821 4.1731ZM37.5821 12.6526C35.9609 12.6526 34.6476 11.3198 34.6476 9.66984C34.6476 8.0199 35.9609 6.68707 37.5821 6.68707C39.2033 6.68707 40.5211 8.0199 40.5211 9.66984C40.5211 11.3198 39.2079 12.6526 37.5821 12.6526Z" fill="white"/>
<path id="Vector_5" d="M78.6558 11.3289C81.1556 11.3289 83.1844 9.2699 83.1844 6.73295C83.1844 4.19599 81.1556 2.1416 78.6558 2.1416C76.1561 2.1416 74.1273 4.19599 74.1273 6.73295C74.1273 9.2699 76.1516 11.3289 78.6558 11.3289ZM78.6558 4.62801C79.8016 4.62801 80.7344 5.57017 80.7344 6.73754C80.7344 7.90491 79.8061 8.84708 78.6558 8.84708C77.5056 8.84708 76.5818 7.90491 76.5818 6.73754C76.5818 5.57017 77.5101 4.62801 78.6558 4.62801Z" fill="white"/>
<path id="Vector_6" d="M17.3306 12.671C17.7834 13.4339 17.6748 14.4634 17.0634 15.231C16.366 16.1088 15.252 16.4167 14.1606 16.0352C13.1961 15.6997 12.9334 15.9663 12.6572 16.2513C12.5439 16.3708 12.3538 16.7476 12.4307 17.1199C12.5394 17.6668 13.1734 18.0391 13.6851 18.2551C15.5282 19.0364 18.5442 18.8434 20.7994 16.5776C21.4968 15.879 21.8048 15.1896 22.0991 14.5232C22.3482 13.9625 22.5882 13.4339 23.0229 12.9973C23.7249 12.2942 24.6079 11.9265 25.5091 11.9678C26.1521 11.9954 26.759 12.2252 27.2707 12.6205C26.4827 7.49139 21.9678 7.02261 20.5096 7.00882L20.5323 6.97665C20.5323 6.97665 20.6545 0.353897 14.2376 0.00920145C8.87132 -0.280343 5.89609 5.51514 5.76929 10.9062C9.73174 9.4033 15.6686 9.87669 17.3306 12.671Z" fill="white"/>
<path id="Vector_7" d="M26.9492 13.8797C26.1658 12.9467 24.8389 12.795 23.82 13.8153C23.1271 14.5093 23.0366 15.9524 21.5965 17.3956C18.893 20.1072 15.32 20.1945 13.2504 19.3167C10.5469 18.1723 11.2081 16.1041 11.8511 15.4423C12.4353 14.8402 13.1599 14.4726 14.5275 14.9459C15.8996 15.4239 16.8144 14.0267 16.357 13.2638C15.2385 11.3841 10.0443 10.3178 5.83273 12.1194C5.80103 12.1332 5.76933 12.147 5.7331 12.1654C1.59404 13.9808 0 17.7632 0 17.7632C2.75334 16.6602 5.16704 18.9904 7.28186 20.6035C9.39667 22.2213 12.2406 24.1332 16.4204 23.9907C20.5957 23.8437 23.6751 21.2883 24.925 19.8866C26.0027 18.6732 27.7326 16.2604 27.316 14.6012C27.2526 14.3393 27.1349 14.0957 26.9537 13.8797H26.9492Z" fill="white"/>
</g>
<defs>
<clipPath id="clip0_1817_5975">
<rect width="87.5" height="24" fill="white"/>
</clipPath>
</defs>
</svg>
