<svg width="24" height="25" viewBox="0 0 24 25" fill="none" xmlns="http://www.w3.org/2000/svg">
<g id="icon_default">
<path id="Vector" fill-rule="evenodd" clip-rule="evenodd" d="M18.813 6.23394C19.1059 5.94105 19.1059 5.46618 18.813 5.17328C18.5201 4.88039 18.0453 4.88039 17.7524 5.17328L11.6444 11.2813L5.53643 5.17328C5.24354 4.88039 4.76867 4.88039 4.47577 5.17328C4.18288 5.46618 4.18288 5.94105 4.47577 6.23394L10.5837 12.3419L4.47577 18.4499C4.18288 18.7428 4.18288 19.2176 4.47577 19.5105C4.76867 19.8034 5.24354 19.8034 5.53643 19.5105L11.6444 13.4026L17.7524 19.5105C18.0453 19.8034 18.5201 19.8034 18.813 19.5105C19.1059 19.2176 19.1059 18.7428 18.813 18.4499L12.7051 12.3419L18.813 6.23394Z" fill="white"/>
</g>
</svg>
