<svg width="120" height="120" viewBox="0 0 120 120" fill="none" xmlns="http://www.w3.org/2000/svg">
<path d="M0 60C0 26.8629 26.8629 0 60 0V0C93.1371 0 120 26.8629 120 60V60C120 93.1371 93.1371 120 60 120V120C26.8629 120 0 93.1371 0 60V60Z" fill="#EEEEEE"/>
<mask id="mask0_2136_140025" style="mask-type:alpha" maskUnits="userSpaceOnUse" x="0" y="0" width="120" height="120">
<path d="M0 60C0 26.8629 26.8629 0 60 0V0C93.1371 0 120 26.8629 120 60V60C120 93.1371 93.1371 120 60 120V120C26.8629 120 0 93.1371 0 60V60Z" fill="#EEEEEE"/>
</mask>
<g mask="url(#mask0_2136_140025)">
<path d="M96 120.8H24V43.1999C27.3936 43.1961 30.6471 41.8463 33.0468 39.4467C35.4464 37.047 36.7962 33.7935 36.8 30.3999H83.2C83.1964 32.081 83.5262 33.7461 84.1704 35.2989C84.8146 36.8517 85.7603 38.2614 86.9528 39.4463C88.1377 40.6392 89.5474 41.5852 91.1004 42.2295C92.6533 42.8738 94.3187 43.2036 96 43.1999V120.8Z" fill="white"/>
<path d="M60 82.4C70.6039 82.4 79.2 73.8039 79.2 63.2C79.2 52.5961 70.6039 44 60 44C49.3961 44 40.8 52.5961 40.8 63.2C40.8 73.8039 49.3961 82.4 60 82.4Z" fill="#323DA3"/>
<path d="M66.7882 72.2505L60 65.4623L53.2118 72.2505L50.949 69.9878L57.7373 63.1995L50.949 56.4113L53.2118 54.1486L60 60.9368L66.7882 54.1486L69.051 56.4113L62.2627 63.1995L69.051 69.9878L66.7882 72.2505Z" fill="white"/>
<path d="M70.4 87.2002H49.6C48.2745 87.2002 47.2 88.2747 47.2 89.6002C47.2 90.9257 48.2745 92.0002 49.6 92.0002H70.4C71.7255 92.0002 72.8 90.9257 72.8 89.6002C72.8 88.2747 71.7255 87.2002 70.4 87.2002Z" fill="#EEEEEE"/>
<path d="M77.6 96.7998H42.4C41.0745 96.7998 40 97.8743 40 99.1998C40 100.525 41.0745 101.6 42.4 101.6H77.6C78.9255 101.6 80 100.525 80 99.1998C80 97.8743 78.9255 96.7998 77.6 96.7998Z" fill="#EEEEEE"/>
</g>
</svg>
