<svg width="24" height="24" viewBox="0 0 24 24" fill="none" xmlns="http://www.w3.org/2000/svg">
<g id="icon_default">
<path id="Vector" fill-rule="evenodd" clip-rule="evenodd" d="M6.16667 5.25C5.92355 5.25 5.69039 5.34658 5.51849 5.51849C5.34658 5.69039 5.25 5.92355 5.25 6.16667V17.8333C5.25 18.0764 5.34658 18.3096 5.51849 18.4815C5.69039 18.6534 5.92355 18.75 6.16667 18.75H9.5C9.91421 18.75 10.25 19.0858 10.25 19.5C10.25 19.9142 9.91421 20.25 9.5 20.25H6.16667C5.52573 20.25 4.91104 19.9954 4.45783 19.5422C4.00461 19.089 3.75 18.4743 3.75 17.8333V6.16667C3.75 5.52573 4.00461 4.91104 4.45783 4.45783C4.91104 4.00461 5.52573 3.75 6.16667 3.75H9.5C9.91421 3.75 10.25 4.08579 10.25 4.5C10.25 4.91421 9.91421 5.25 9.5 5.25H6.16667ZM14.803 7.30301C15.0959 7.01012 15.5708 7.01012 15.8637 7.30301L20.0275 11.4669C20.0373 11.4765 20.0468 11.4865 20.056 11.4967C20.1766 11.6298 20.25 11.8063 20.25 12C20.25 12.1017 20.2298 12.1987 20.1931 12.2871C20.1565 12.3756 20.1022 12.4584 20.0303 12.5303L15.8637 16.697C15.5708 16.9899 15.0959 16.9899 14.803 16.697C14.5101 16.4041 14.5101 15.9292 14.803 15.6363L17.6893 12.75H9.5C9.08579 12.75 8.75 12.4142 8.75 12C8.75 11.5858 9.08579 11.25 9.5 11.25H17.6893L14.803 8.36367C14.5101 8.07078 14.5101 7.59591 14.803 7.30301Z" fill="#333333"/>
</g>
</svg>
