<svg width="24" height="25" viewBox="0 0 24 25" fill="none" xmlns="http://www.w3.org/2000/svg">
<g id="icon_default">
<path id="Vector" fill-rule="evenodd" clip-rule="evenodd" d="M18.5303 6.27778C18.8232 6.57067 18.8232 7.04554 18.5303 7.33844L13.0607 12.8081L18.5303 18.2778C18.8232 18.5707 18.8232 19.0455 18.5303 19.3384C18.2374 19.6313 17.7626 19.6313 17.4697 19.3384L11.4697 13.3384C11.1768 13.0455 11.1768 12.5707 11.4697 12.2778L17.4697 6.27778C17.7626 5.98488 18.2374 5.98488 18.5303 6.27778Z" fill="#999999"/>
<path id="Vector_2" fill-rule="evenodd" clip-rule="evenodd" d="M11.2803 6.27778C11.5732 6.57067 11.5732 7.04554 11.2803 7.33844L5.81066 12.8081L11.2803 18.2778C11.5732 18.5707 11.5732 19.0455 11.2803 19.3384C10.9874 19.6313 10.5126 19.6313 10.2197 19.3384L4.21967 13.3384C3.92678 13.0455 3.92678 12.5707 4.21967 12.2778L10.2197 6.27778C10.5126 5.98488 10.9874 5.98488 11.2803 6.27778Z" fill="#999999"/>
</g>
</svg>
